G04 PROTEUS GERBER X2 FILE*
%TF.GenerationSoftware,Labcenter,Proteus,8.16-SP3-Build36097*%
%TF.CreationDate,2024-09-26T16:34:03+00:00*%
%TF.FileFunction,Plated,1,2,PTH*%
%TF.FilePolarity,Positive*%
%TF.Part,Single*%
%TF.SameCoordinates,{f118cff8-fadb-4bc5-a17f-1c91f2e22e42}*%
%FSLAX45Y45*%
%MOMM*%
G01*
%TA.AperFunction,ViaDrill*%
%ADD201C,0.300000*%
%TA.AperFunction,ComponentDrill*%
%ADD202C,1.397000*%
%ADD203C,0.812800*%
%TA.AperFunction,ComponentDrill*%
%ADD204C,0.889000*%
%TA.AperFunction,OtherDrill,Unknown*%
%ADD205C,1.100000*%
%TA.AperFunction,ComponentDrill*%
%ADD206C,1.100000*%
%TD.AperFunction*%
D201*
X+440000Y+4816000D03*
X+1104302Y+4908415D03*
X+1627645Y+3396462D03*
X+767127Y+3129083D03*
X+1579818Y+1781411D03*
X+190696Y+4973304D03*
X+1413239Y+779350D03*
X+1200839Y+779350D03*
X+988439Y+779350D03*
X-73561Y+779350D03*
X-498361Y+779350D03*
X-508650Y+991500D03*
X-99964Y+1072651D03*
X+160000Y+1834000D03*
X+157380Y+2386856D03*
X+157380Y+2599256D03*
X-508253Y+3523750D03*
X-508253Y+3736150D03*
X+96179Y+5173650D03*
X+1582979Y+5173650D03*
X+1654000Y+3690000D03*
X+1380415Y+1905721D03*
X+1380415Y+2273607D03*
X+1486615Y+2457550D03*
X+540215Y+4505550D03*
X-41785Y+4197550D03*
X+1118215Y+4459550D03*
X-220000Y+3934000D03*
X+1310253Y+1099850D03*
X-502000Y+3262000D03*
X-508253Y+4016150D03*
X-510253Y+4266150D03*
X-512253Y+4530150D03*
X+1651747Y+4866150D03*
X+1043747Y+5208150D03*
X+1279747Y+5206150D03*
X+319747Y+3918150D03*
X+1312000Y+1004000D03*
X+1580000Y+850000D03*
X+275747Y+4712150D03*
X-186000Y+3056000D03*
X-185668Y+3464572D03*
X+348000Y+3799000D03*
X+30000Y+3122000D03*
X+546215Y+1709785D03*
X+694000Y+1590000D03*
X+613979Y+3032820D03*
X+507500Y+1577266D03*
X+1276499Y+2455266D03*
X+844415Y+1973607D03*
X+844000Y+2220000D03*
X+838415Y+3253607D03*
X+1396415Y+3467607D03*
X+1348000Y+3198000D03*
X+923747Y+4026150D03*
X+1652000Y+4580000D03*
X+1652000Y+4206000D03*
D202*
X+906000Y+5066000D03*
X+406000Y+5066000D03*
X+1406000Y+5066000D03*
X+906000Y+5066000D03*
D203*
X+262000Y+3318000D03*
X+1462000Y+3318000D03*
D204*
X+183327Y+1382060D03*
X+383327Y+1382060D03*
X+583327Y+1382060D03*
X+783327Y+1382060D03*
X+983327Y+1382060D03*
X+1183325Y+1382060D03*
X+1383327Y+1382060D03*
X+1583327Y+1382060D03*
X+183327Y+2781677D03*
X+383327Y+2781677D03*
X+583327Y+2781677D03*
X+783327Y+2781677D03*
X+983327Y+2781677D03*
X+1183325Y+2781677D03*
X+1383327Y+2781677D03*
X+1583327Y+2781677D03*
D205*
X+656000Y+5066000D03*
X+1156000Y+5066000D03*
D206*
X-410000Y+3128000D03*
X-410000Y+3382000D03*
X-410000Y+3636000D03*
X-410000Y+3890000D03*
X-410000Y+4144000D03*
X-410000Y+4398000D03*
X-410000Y+4652000D03*
M02*
