G04 PROTEUS GERBER X2 FILE*
%TF.GenerationSoftware,Labcenter,Proteus,8.16-SP3-Build36097*%
%TF.CreationDate,2024-09-26T16:34:03+00:00*%
%TF.FileFunction,AssemblyDrawing,Top*%
%TF.FilePolarity,Positive*%
%TF.Part,Single*%
%TF.SameCoordinates,{f118cff8-fadb-4bc5-a17f-1c91f2e22e42}*%
%FSLAX45Y45*%
%MOMM*%
G01*
%TA.AperFunction,Material*%
%ADD63C,0.177800*%
%ADD154C,0.800000*%
%ADD155C,0.687710*%
%ADD156C,0.050000*%
%ADD157C,0.593960*%
%ADD158C,0.224330*%
%ADD159C,0.840000*%
%ADD160C,0.313870*%
%ADD161C,0.406400*%
%ADD162C,0.096520*%
%ADD163C,0.396240*%
%ADD164C,0.066630*%
%ADD165C,0.376000*%
%ADD166C,0.051640*%
%ADD167C,0.355600*%
%ADD168C,0.056890*%
%ADD169C,0.500000*%
%ADD170C,0.113740*%
%ADD171C,0.020000*%
%ADD172C,0.045740*%
%ADD173C,0.169550*%
%ADD66C,0.100000*%
%ADD174C,0.480000*%
%ADD175C,0.164070*%
%ADD176C,0.380000*%
%ADD177C,0.069570*%
%ADD178C,0.405000*%
%ADD179C,0.085740*%
%ADD180C,0.660000*%
%ADD181C,0.201050*%
%TA.AperFunction,Profile*%
%ADD41C,0.177800*%
%TD.AperFunction*%
D63*
X-726673Y+1182060D02*
X+1833327Y+1182060D01*
X+1833327Y+2982060D01*
X-726673Y+2982060D01*
X-726673Y+1182060D01*
D154*
X+185327Y+1282060D02*
X+185327Y+1282060D01*
D155*
X-65612Y+2358373D02*
X-65612Y+2014518D01*
X+11755Y+1945747D01*
X+321224Y+1945747D01*
X+398592Y+2014518D01*
X+398592Y+2358373D01*
X+708061Y+2220831D02*
X+862796Y+2358373D01*
X+862796Y+1945747D01*
D156*
X+1181000Y+4641000D02*
X+131000Y+4641000D01*
X+131000Y+5441000D01*
X+1181000Y+5441000D01*
X+1181000Y+4641000D01*
D157*
X+906000Y+5066000D02*
X+906000Y+5066000D01*
D158*
X+524835Y+4839097D02*
X+547268Y+4839097D01*
X+569702Y+4864334D01*
X+569702Y+4965286D01*
X+547268Y+4990524D01*
X+435100Y+4990524D01*
X+457534Y+5066237D02*
X+435100Y+5091475D01*
X+435100Y+5167189D01*
X+457534Y+5192427D01*
X+479967Y+5192427D01*
X+502401Y+5167189D01*
X+502401Y+5091475D01*
X+524835Y+5066237D01*
X+569702Y+5066237D01*
X+569702Y+5192427D01*
D156*
X+1681000Y+4641000D02*
X+631000Y+4641000D01*
X+631000Y+5441000D01*
X+1681000Y+5441000D01*
X+1681000Y+4641000D01*
D157*
X+1406000Y+5066000D02*
X+1406000Y+5066000D01*
D158*
X+1024835Y+4839097D02*
X+1047268Y+4839097D01*
X+1069702Y+4864334D01*
X+1069702Y+4965286D01*
X+1047268Y+4990524D01*
X+935100Y+4990524D01*
X+979967Y+5091475D02*
X+935100Y+5141951D01*
X+1069702Y+5141951D01*
D156*
X+233000Y+3914000D02*
X+1403000Y+3914000D01*
X+1403000Y+4474000D01*
X+233000Y+4474000D01*
X+233000Y+3914000D01*
D159*
X+363000Y+4321000D02*
X+363000Y+4321000D01*
D160*
X+622761Y+4225388D02*
X+693383Y+4288163D01*
X+764005Y+4288163D01*
X+834627Y+4225388D01*
X+834627Y+4162612D01*
X+764005Y+4099837D01*
X+693383Y+4099837D01*
X+622761Y+4162612D01*
X+622761Y+4225388D01*
X+764005Y+4162612D02*
X+834627Y+4099837D01*
X+975872Y+4225388D02*
X+1046494Y+4288163D01*
X+1046494Y+4099837D01*
D63*
X+415165Y+3549400D02*
X+722505Y+3549400D01*
X+722505Y+3841500D01*
X+415165Y+3841500D01*
X+415165Y+3549400D01*
D161*
X+568835Y+3600200D02*
X+568835Y+3600200D01*
D162*
X+481967Y+3740662D02*
X+503684Y+3759966D01*
X+525401Y+3759966D01*
X+547118Y+3740662D01*
X+547118Y+3721358D01*
X+525401Y+3702054D01*
X+503684Y+3702054D01*
X+481967Y+3721358D01*
X+481967Y+3740662D01*
X+525401Y+3721358D02*
X+547118Y+3702054D01*
X+579693Y+3750314D02*
X+590552Y+3759966D01*
X+623127Y+3759966D01*
X+633986Y+3750314D01*
X+633986Y+3740662D01*
X+623127Y+3731010D01*
X+590552Y+3731010D01*
X+579693Y+3721358D01*
X+579693Y+3702054D01*
X+633986Y+3702054D01*
D156*
X+811000Y+3871000D02*
X+811000Y+3561000D01*
X+961000Y+3561000D01*
X+961000Y+3871000D01*
X+811000Y+3871000D01*
X+936000Y+3716000D02*
X+836000Y+3716000D01*
X+886000Y+3666000D02*
X+886000Y+3766000D01*
D163*
X+886000Y+3796000D02*
X+886000Y+3796000D01*
D164*
X+905991Y+3607372D02*
X+866010Y+3607372D01*
X+866010Y+3644854D01*
X+872673Y+3652351D01*
X+879337Y+3652351D01*
X+886000Y+3644854D01*
X+886000Y+3607372D01*
X+886000Y+3644854D02*
X+892664Y+3652351D01*
X+905991Y+3652351D01*
X+872673Y+3674840D02*
X+866010Y+3682337D01*
X+866010Y+3704826D01*
X+872673Y+3712323D01*
X+879337Y+3712323D01*
X+886000Y+3704826D01*
X+886000Y+3682337D01*
X+892664Y+3674840D01*
X+905991Y+3674840D01*
X+905991Y+3712323D01*
D156*
X+345000Y+965000D02*
X+655000Y+965000D01*
X+655000Y+1115000D01*
X+345000Y+1115000D01*
X+345000Y+965000D01*
X+500000Y+1090000D02*
X+500000Y+990000D01*
X+550000Y+1040000D02*
X+450000Y+1040000D01*
D163*
X+420000Y+1040000D02*
X+420000Y+1040000D01*
D164*
X+488684Y+1020009D02*
X+488684Y+1059990D01*
X+526166Y+1059990D01*
X+533663Y+1053327D01*
X+533663Y+1046663D01*
X+526166Y+1040000D01*
X+488684Y+1040000D01*
X+526166Y+1040000D02*
X+533663Y+1033336D01*
X+533663Y+1020009D01*
X+593635Y+1053327D02*
X+586138Y+1059990D01*
X+563649Y+1059990D01*
X+556152Y+1053327D01*
X+556152Y+1026672D01*
X+563649Y+1020009D01*
X+586138Y+1020009D01*
X+593635Y+1026672D01*
X+593635Y+1033336D01*
X+586138Y+1040000D01*
X+556152Y+1040000D01*
D156*
X+35000Y+965000D02*
X+345000Y+965000D01*
X+345000Y+1115000D01*
X+35000Y+1115000D01*
X+35000Y+965000D01*
X+190000Y+1090000D02*
X+190000Y+990000D01*
X+240000Y+1040000D02*
X+140000Y+1040000D01*
D163*
X+110000Y+1040000D02*
X+110000Y+1040000D01*
D164*
X+178684Y+1020009D02*
X+178684Y+1059990D01*
X+216166Y+1059990D01*
X+223663Y+1053327D01*
X+223663Y+1046663D01*
X+216166Y+1040000D01*
X+178684Y+1040000D01*
X+216166Y+1040000D02*
X+223663Y+1033336D01*
X+223663Y+1020009D01*
X+246152Y+1059990D02*
X+283635Y+1059990D01*
X+283635Y+1053327D01*
X+246152Y+1020009D01*
D156*
X+1391000Y+903000D02*
X+1635000Y+903000D01*
X+1635000Y+1027000D01*
X+1391000Y+1027000D01*
X+1391000Y+903000D01*
D165*
X+1446000Y+965000D02*
X+1446000Y+965000D01*
D166*
X+1539531Y+954672D02*
X+1533721Y+949508D01*
X+1516293Y+949508D01*
X+1504674Y+959836D01*
X+1504674Y+970164D01*
X+1516293Y+980492D01*
X+1533721Y+980492D01*
X+1539531Y+975328D01*
X+1562769Y+970164D02*
X+1574388Y+980492D01*
X+1574388Y+949508D01*
D63*
X+1365550Y+1050470D02*
X+1627170Y+1050470D01*
X+1627170Y+1149530D01*
X+1365550Y+1149530D01*
X+1365550Y+1050470D01*
D167*
X+1410000Y+1100000D02*
X+1410000Y+1100000D01*
D168*
X+1514673Y+1088620D02*
X+1508272Y+1082931D01*
X+1489070Y+1082931D01*
X+1476269Y+1094310D01*
X+1476269Y+1105689D01*
X+1489070Y+1117068D01*
X+1508272Y+1117068D01*
X+1514673Y+1111379D01*
X+1533875Y+1111379D02*
X+1540276Y+1117068D01*
X+1559478Y+1117068D01*
X+1565879Y+1111379D01*
X+1565879Y+1105689D01*
X+1559478Y+1100000D01*
X+1540276Y+1100000D01*
X+1533875Y+1094310D01*
X+1533875Y+1082931D01*
X+1565879Y+1082931D01*
D156*
X+527000Y+3128000D02*
X+881000Y+3128000D01*
X+881000Y+3512000D01*
X+527000Y+3512000D01*
X+527000Y+3128000D01*
D169*
X+799000Y+3425000D02*
X+799000Y+3425000D01*
D170*
X+601634Y+3296872D02*
X+601634Y+3240002D01*
X+614429Y+3228628D01*
X+665612Y+3228628D01*
X+678408Y+3240002D01*
X+678408Y+3296872D01*
X+716795Y+3285498D02*
X+729591Y+3296872D01*
X+767978Y+3296872D01*
X+780774Y+3285498D01*
X+780774Y+3274124D01*
X+767978Y+3262750D01*
X+780774Y+3251376D01*
X+780774Y+3240002D01*
X+767978Y+3228628D01*
X+729591Y+3228628D01*
X+716795Y+3240002D01*
X+742387Y+3262750D02*
X+767978Y+3262750D01*
D156*
X+31000Y+3411000D02*
X+341000Y+3411000D01*
X+341000Y+3561000D01*
X+31000Y+3561000D01*
X+31000Y+3411000D01*
X+186000Y+3536000D02*
X+186000Y+3436000D01*
X+236000Y+3486000D02*
X+136000Y+3486000D01*
D163*
X+106000Y+3486000D02*
X+106000Y+3486000D01*
D164*
X+144698Y+3466009D02*
X+144698Y+3505990D01*
X+182180Y+3505990D01*
X+189677Y+3499327D01*
X+189677Y+3492663D01*
X+182180Y+3486000D01*
X+144698Y+3486000D01*
X+182180Y+3486000D02*
X+189677Y+3479336D01*
X+189677Y+3466009D01*
X+219663Y+3492663D02*
X+234656Y+3505990D01*
X+234656Y+3466009D01*
X+279635Y+3492663D02*
X+294628Y+3505990D01*
X+294628Y+3466009D01*
D156*
X+524000Y+3416000D02*
X+524000Y+3234000D01*
X+374000Y+3234000D01*
X+374000Y+3416000D01*
X+524000Y+3416000D01*
D171*
X+481512Y+3368000D02*
X+481512Y+3368000D01*
D172*
X+407834Y+3312972D02*
X+407834Y+3290102D01*
X+412979Y+3285528D01*
X+433562Y+3285528D01*
X+438708Y+3290102D01*
X+438708Y+3312972D01*
X+479874Y+3294676D02*
X+449000Y+3294676D01*
X+469583Y+3312972D01*
X+469583Y+3285528D01*
D63*
X+53327Y+1252056D02*
X+1713327Y+1252056D01*
X+1713327Y+1512060D01*
X+53327Y+1512060D01*
X+53327Y+1252056D01*
D173*
X+730727Y+1365102D02*
X+730727Y+1348146D01*
X+749802Y+1331191D01*
X+826102Y+1331191D01*
X+845177Y+1348146D01*
X+845177Y+1432924D01*
X+902402Y+1415969D02*
X+921477Y+1432924D01*
X+978702Y+1432924D01*
X+997777Y+1415969D01*
X+997777Y+1399013D01*
X+978702Y+1382058D01*
X+997777Y+1365102D01*
X+997777Y+1348146D01*
X+978702Y+1331191D01*
X+921477Y+1331191D01*
X+902402Y+1348146D01*
X+940552Y+1382058D02*
X+978702Y+1382058D01*
D63*
X+53327Y+2651673D02*
X+1713327Y+2651673D01*
X+1713327Y+2911677D01*
X+53327Y+2911677D01*
X+53327Y+2651673D01*
D173*
X+730727Y+2764719D02*
X+730727Y+2747763D01*
X+749802Y+2730808D01*
X+826102Y+2730808D01*
X+845177Y+2747763D01*
X+845177Y+2832541D01*
X+997777Y+2764719D02*
X+883327Y+2764719D01*
X+959627Y+2832541D01*
X+959627Y+2730808D01*
D66*
X-276000Y+3907000D02*
X+224000Y+3907000D01*
X+224000Y+4467000D01*
X-276000Y+4467000D01*
X-276000Y+3907000D01*
D174*
X+54000Y+4357000D02*
X+54000Y+4357000D01*
D175*
X-173665Y+4068278D02*
X-173665Y+4166722D01*
X-81375Y+4166722D01*
X-62917Y+4150315D01*
X-62917Y+4133907D01*
X-81375Y+4117500D01*
X-173665Y+4117500D01*
X-81375Y+4117500D02*
X-62917Y+4101093D01*
X-62917Y+4068278D01*
X+10916Y+4133907D02*
X+47832Y+4166722D01*
X+47832Y+4068278D01*
D156*
X+926000Y+3198000D02*
X+1110000Y+3198000D01*
X+1110000Y+3534000D01*
X+926000Y+3534000D01*
X+926000Y+3198000D01*
D176*
X+1018000Y+3441000D02*
X+1018000Y+3441000D01*
D177*
X+1038872Y+3246135D02*
X+997128Y+3246135D01*
X+997128Y+3277442D01*
X+1011043Y+3293096D01*
X+1024957Y+3293096D01*
X+1038872Y+3277442D01*
X+1038872Y+3246135D01*
X+1011043Y+3324403D02*
X+997128Y+3340057D01*
X+1038872Y+3340057D01*
D156*
X+1121696Y+3523000D02*
X+1121696Y+3213000D01*
X+1271696Y+3213000D01*
X+1271696Y+3523000D01*
X+1121696Y+3523000D01*
X+1246696Y+3368000D02*
X+1146696Y+3368000D01*
X+1196696Y+3318000D02*
X+1196696Y+3418000D01*
D163*
X+1196696Y+3448000D02*
X+1196696Y+3448000D01*
D164*
X+1216687Y+3229386D02*
X+1176706Y+3229386D01*
X+1176706Y+3266868D01*
X+1183369Y+3274365D01*
X+1190033Y+3274365D01*
X+1196696Y+3266868D01*
X+1196696Y+3229386D01*
X+1196696Y+3266868D02*
X+1203360Y+3274365D01*
X+1216687Y+3274365D01*
X+1190033Y+3304351D02*
X+1176706Y+3319344D01*
X+1216687Y+3319344D01*
X+1183369Y+3356826D02*
X+1176706Y+3364323D01*
X+1176706Y+3386812D01*
X+1183369Y+3394309D01*
X+1190033Y+3394309D01*
X+1196696Y+3386812D01*
X+1203360Y+3394309D01*
X+1210024Y+3394309D01*
X+1216687Y+3386812D01*
X+1216687Y+3364323D01*
X+1210024Y+3356826D01*
X+1196696Y+3371819D02*
X+1196696Y+3386812D01*
D156*
X-38000Y+3599000D02*
X+326000Y+3599000D01*
X+326000Y+3869000D01*
X-38000Y+3869000D01*
X-38000Y+3599000D01*
D178*
X+44000Y+3799000D02*
X+44000Y+3799000D01*
D179*
X+187801Y+3656834D02*
X+170653Y+3676125D01*
X+170653Y+3695417D01*
X+187801Y+3714708D01*
X+204949Y+3714708D01*
X+222097Y+3695417D01*
X+222097Y+3676125D01*
X+204949Y+3656834D01*
X+187801Y+3656834D01*
X+204949Y+3695417D02*
X+222097Y+3714708D01*
X+179227Y+3743645D02*
X+170653Y+3753291D01*
X+170653Y+3782228D01*
X+179227Y+3791874D01*
X+187801Y+3791874D01*
X+196375Y+3782228D01*
X+204949Y+3791874D01*
X+213523Y+3791874D01*
X+222097Y+3782228D01*
X+222097Y+3753291D01*
X+213523Y+3743645D01*
X+196375Y+3762937D02*
X+196375Y+3782228D01*
D156*
X+1041670Y+3871000D02*
X+1041670Y+3561000D01*
X+1191670Y+3561000D01*
X+1191670Y+3871000D01*
X+1041670Y+3871000D01*
X+1166670Y+3716000D02*
X+1066670Y+3716000D01*
X+1116670Y+3666000D02*
X+1116670Y+3766000D01*
D163*
X+1116670Y+3796000D02*
X+1116670Y+3796000D01*
D164*
X+1136661Y+3607372D02*
X+1096680Y+3607372D01*
X+1096680Y+3644854D01*
X+1103343Y+3652351D01*
X+1110007Y+3652351D01*
X+1116670Y+3644854D01*
X+1116670Y+3607372D01*
X+1116670Y+3644854D02*
X+1123334Y+3652351D01*
X+1136661Y+3652351D01*
X+1103343Y+3674840D02*
X+1096680Y+3682337D01*
X+1096680Y+3704826D01*
X+1103343Y+3712323D01*
X+1110007Y+3712323D01*
X+1116670Y+3704826D01*
X+1123334Y+3712323D01*
X+1129998Y+3712323D01*
X+1136661Y+3704826D01*
X+1136661Y+3682337D01*
X+1129998Y+3674840D01*
X+1116670Y+3689833D02*
X+1116670Y+3704826D01*
D156*
X+675000Y+978000D02*
X+919000Y+978000D01*
X+919000Y+1102000D01*
X+675000Y+1102000D01*
X+675000Y+978000D01*
D165*
X+864000Y+1040000D02*
X+864000Y+1040000D01*
D166*
X+723993Y+1029672D02*
X+718183Y+1024508D01*
X+700755Y+1024508D01*
X+689136Y+1034836D01*
X+689136Y+1045164D01*
X+700755Y+1055492D01*
X+718183Y+1055492D01*
X+723993Y+1050328D01*
X+747231Y+1045164D02*
X+758850Y+1055492D01*
X+758850Y+1024508D01*
X+793707Y+1045164D02*
X+805326Y+1055492D01*
X+805326Y+1024508D01*
D156*
X-260000Y+2976000D02*
X-560000Y+2976000D01*
X-560000Y+4792000D01*
X-262000Y+4792000D01*
X-260000Y+2976000D01*
D180*
X-410000Y+3128000D02*
X-410000Y+3128000D01*
D181*
X-389894Y+3796802D02*
X-369789Y+3796802D01*
X-349683Y+3819420D01*
X-349683Y+3909894D01*
X-369789Y+3932513D01*
X-470316Y+3932513D01*
X-470316Y+4113461D02*
X-470316Y+4000368D01*
X-430105Y+4000368D01*
X-430105Y+4090842D01*
X-410000Y+4113461D01*
X-369789Y+4113461D01*
X-349683Y+4090842D01*
X-349683Y+4022987D01*
X-369789Y+4000368D01*
D41*
X-671603Y+4737000D02*
X-671603Y+2937000D01*
X-5970Y+2937000D01*
X-5970Y+1236000D01*
X-672000Y+1236000D01*
X-672000Y+616000D01*
X+1788988Y+616000D01*
X+1788988Y+5337000D01*
X+28182Y+5337000D01*
X-671603Y+4737000D01*
M02*
