G04 PROTEUS GERBER X2 FILE*
%TF.GenerationSoftware,Labcenter,Proteus,8.16-SP3-Build36097*%
%TF.CreationDate,2024-09-26T16:34:03+00:00*%
%TF.FileFunction,Soldermask,Top*%
%TF.FilePolarity,Negative*%
%TF.Part,Single*%
%TF.SameCoordinates,{f118cff8-fadb-4bc5-a17f-1c91f2e22e42}*%
%FSLAX45Y45*%
%MOMM*%
G01*
%AMPPAD063*
4,1,4,
-0.600000,-1.000000,
-0.600000,1.000000,
0.600000,1.000000,
0.600000,-1.000000,
-0.600000,-1.000000,
0*%
%TA.AperFunction,Material*%
%ADD69PPAD063*%
%AMPPAD064*
4,1,4,
-1.000000,-0.600000,
-1.000000,0.600000,
1.000000,0.600000,
1.000000,-0.600000,
-1.000000,-0.600000,
0*%
%ADD74PPAD064*%
%AMPPAD065*
4,1,36,
0.742460,-0.792460,
-0.742460,-0.792460,
-0.752540,-0.791440,
-0.761920,-0.788530,
-0.770410,-0.783920,
-0.777810,-0.777810,
-0.783920,-0.770410,
-0.788530,-0.761920,
-0.791440,-0.752540,
-0.792460,-0.742460,
-0.792460,0.742460,
-0.791440,0.752540,
-0.788530,0.761920,
-0.783920,0.770410,
-0.777810,0.777810,
-0.770410,0.783920,
-0.761920,0.788530,
-0.752540,0.791440,
-0.742460,0.792460,
0.742460,0.792460,
0.752540,0.791440,
0.761920,0.788530,
0.770410,0.783920,
0.777810,0.777810,
0.783920,0.770410,
0.788530,0.761920,
0.791440,0.752540,
0.792460,0.742460,
0.792460,-0.742460,
0.791440,-0.752540,
0.788530,-0.761920,
0.783920,-0.770410,
0.777810,-0.777810,
0.770410,-0.783920,
0.761920,-0.788530,
0.752540,-0.791440,
0.742460,-0.792460,
0*%
%TA.AperFunction,Material*%
%ADD75PPAD065*%
%ADD76C,2.200000*%
%AMPPAD067*
4,1,4,
-1.050000,0.725000,
1.050000,0.725000,
1.050000,-0.725000,
-1.050000,-0.725000,
-1.050000,0.725000,
0*%
%TA.AperFunction,Material*%
%ADD77PPAD067*%
%AMPPAD068*
4,1,36,
-0.444500,0.635000,
0.444500,0.635000,
0.470090,0.632420,
0.493930,0.625020,
0.515500,0.613310,
0.534300,0.597800,
0.549810,0.579000,
0.561520,0.557430,
0.568920,0.533590,
0.571500,0.508000,
0.571500,-0.508000,
0.568920,-0.533590,
0.561520,-0.557430,
0.549810,-0.579000,
0.534300,-0.597800,
0.515500,-0.613310,
0.493930,-0.625020,
0.470090,-0.632420,
0.444500,-0.635000,
-0.444500,-0.635000,
-0.470090,-0.632420,
-0.493930,-0.625020,
-0.515500,-0.613310,
-0.534300,-0.597800,
-0.549810,-0.579000,
-0.561520,-0.557430,
-0.568920,-0.533590,
-0.571500,-0.508000,
-0.571500,0.508000,
-0.568920,0.533590,
-0.561520,0.557430,
-0.549810,0.579000,
-0.534300,0.597800,
-0.515500,0.613310,
-0.493930,0.625020,
-0.470090,0.632420,
-0.444500,0.635000,
0*%
%TA.AperFunction,Material*%
%ADD78PPAD068*%
%AMPPAD069*
4,1,4,
0.495300,0.469900,
0.495300,-0.469900,
-0.495300,-0.469900,
-0.495300,0.469900,
0.495300,0.469900,
0*%
%TA.AperFunction,Material*%
%ADD79PPAD069*%
%AMPPAD070*
4,1,4,
-0.469900,0.495300,
0.469900,0.495300,
0.469900,-0.495300,
-0.469900,-0.495300,
-0.469900,0.495300,
0*%
%ADD80PPAD070*%
%AMPPAD071*
4,1,4,
-0.405000,0.470000,
0.405000,0.470000,
0.405000,-0.470000,
-0.405000,-0.470000,
-0.405000,0.470000,
0*%
%ADD81PPAD071*%
%AMPPAD072*
4,1,36,
-0.444500,0.571500,
0.444500,0.571500,
0.470090,0.568920,
0.493930,0.561520,
0.515500,0.549810,
0.534300,0.534300,
0.549810,0.515500,
0.561520,0.493930,
0.568920,0.470090,
0.571500,0.444500,
0.571500,-0.444500,
0.568920,-0.470090,
0.561520,-0.493930,
0.549810,-0.515500,
0.534300,-0.534300,
0.515500,-0.549810,
0.493930,-0.561520,
0.470090,-0.568920,
0.444500,-0.571500,
-0.444500,-0.571500,
-0.470090,-0.568920,
-0.493930,-0.561520,
-0.515500,-0.549810,
-0.534300,-0.534300,
-0.549810,-0.515500,
-0.561520,-0.493930,
-0.568920,-0.470090,
-0.571500,-0.444500,
-0.571500,0.444500,
-0.568920,0.470090,
-0.561520,0.493930,
-0.549810,0.515500,
-0.534300,0.534300,
-0.515500,0.549810,
-0.493930,0.561520,
-0.470090,0.568920,
-0.444500,0.571500,
0*%
%ADD82PPAD072*%
%AMPPAD073*
4,1,4,
0.300000,0.625000,
0.300000,-0.625000,
-0.300000,-0.625000,
-0.300000,0.625000,
0.300000,0.625000,
0*%
%TA.AperFunction,Material*%
%ADD83PPAD073*%
%AMPPAD074*
4,1,4,
0.025000,0.025000,
0.025000,-0.025000,
-0.025000,-0.025000,
-0.025000,0.025000,
0.025000,0.025000,
0*%
%TA.AperFunction,Material*%
%ADD84PPAD074*%
%TA.AperFunction,Material*%
%ADD85C,1.651000*%
%AMPPAD076*
4,1,36,
-0.698500,-0.825500,
0.698500,-0.825500,
0.724090,-0.822920,
0.747930,-0.815520,
0.769500,-0.803810,
0.788300,-0.788300,
0.803810,-0.769500,
0.815520,-0.747930,
0.822920,-0.724090,
0.825500,-0.698500,
0.825500,0.698500,
0.822920,0.724090,
0.815520,0.747930,
0.803810,0.769500,
0.788300,0.788300,
0.769500,0.803810,
0.747930,0.815520,
0.724090,0.822920,
0.698500,0.825500,
-0.698500,0.825500,
-0.724090,0.822920,
-0.747930,0.815520,
-0.769500,0.803810,
-0.788300,0.788300,
-0.803810,0.769500,
-0.815520,0.747930,
-0.822920,0.724090,
-0.825500,0.698500,
-0.825500,-0.698500,
-0.822920,-0.724090,
-0.815520,-0.747930,
-0.803810,-0.769500,
-0.788300,-0.788300,
-0.769500,-0.803810,
-0.747930,-0.815520,
-0.724090,-0.822920,
-0.698500,-0.825500,
0*%
%ADD86PPAD076*%
%AMPPAD077*
4,1,36,
-0.762000,-0.635000,
-0.762000,0.635000,
-0.759420,0.660590,
-0.752020,0.684430,
-0.740310,0.706000,
-0.724800,0.724800,
-0.706000,0.740310,
-0.684430,0.752020,
-0.660590,0.759420,
-0.635000,0.762000,
0.635000,0.762000,
0.660590,0.759420,
0.684430,0.752020,
0.706000,0.740310,
0.724800,0.724800,
0.740310,0.706000,
0.752020,0.684430,
0.759420,0.660590,
0.762000,0.635000,
0.762000,-0.635000,
0.759420,-0.660590,
0.752020,-0.684430,
0.740310,-0.706000,
0.724800,-0.724800,
0.706000,-0.740310,
0.684430,-0.752020,
0.660590,-0.759420,
0.635000,-0.762000,
-0.635000,-0.762000,
-0.660590,-0.759420,
-0.684430,-0.752020,
-0.706000,-0.740310,
-0.724800,-0.724800,
-0.740310,-0.706000,
-0.752020,-0.684430,
-0.759420,-0.660590,
-0.762000,-0.635000,
0*%
%TA.AperFunction,Material*%
%ADD87PPAD077*%
%ADD88C,1.340000*%
%AMPPAD079*
4,1,4,
0.600000,-0.600000,
-0.600000,-0.600000,
-0.600000,0.600000,
0.600000,0.600000,
0.600000,-0.600000,
0*%
%TA.AperFunction,Material*%
%ADD89PPAD079*%
%AMPPAD080*
4,1,4,
0.800000,-0.750000,
-0.800000,-0.750000,
-0.800000,0.750000,
0.800000,0.750000,
0.800000,-0.750000,
0*%
%ADD90PPAD080*%
%AMPPAD081*
4,1,4,
0.475000,0.475000,
0.475000,-0.475000,
-0.475000,-0.475000,
-0.475000,0.475000,
0.475000,0.475000,
0*%
%TA.AperFunction,Material*%
%ADD91PPAD081*%
%TA.AperFunction,Material*%
%ADD92C,1.650000*%
%AMPPAD083*
4,1,4,
-0.575000,0.225000,
0.575000,0.225000,
0.575000,-0.225000,
-0.575000,-0.225000,
-0.575000,0.225000,
0*%
%TA.AperFunction,Material*%
%ADD93PPAD083*%
%AMPPAD084*
4,1,4,
-0.825000,-0.825000,
-0.825000,0.825000,
0.825000,0.825000,
0.825000,-0.825000,
-0.825000,-0.825000,
0*%
%TA.AperFunction,Material*%
%ADD94PPAD084*%
%AMPPAD085*
4,1,4,
-0.450000,0.650000,
0.450000,0.650000,
0.450000,-0.650000,
-0.450000,-0.650000,
-0.450000,0.650000,
0*%
%TA.AperFunction,Material*%
%ADD95PPAD085*%
%AMPPAD086*
4,1,4,
0.650000,0.450000,
0.650000,-0.450000,
-0.650000,-0.450000,
-0.650000,0.450000,
0.650000,0.450000,
0*%
%ADD96PPAD086*%
%ADD97C,0.025400*%
%TA.AperFunction,Profile*%
%ADD41C,0.177800*%
%TD.AperFunction*%
%TA.AperFunction,Material*%
G36*
X+492000Y+3386000D02*
X+471000Y+3386000D01*
X+471000Y+3368000D01*
X+489000Y+3350000D01*
X+492000Y+3350000D01*
X+492000Y+3386000D01*
G37*
%TD.AperFunction*%
%TA.AperFunction,Material*%
G36*
X+406000Y+3264000D02*
X+427000Y+3264000D01*
X+427000Y+3282000D01*
X+409000Y+3300000D01*
X+406000Y+3300000D01*
X+406000Y+3264000D01*
G37*
%TD.AperFunction*%
%TA.AperFunction,Material*%
G36*
X+492000Y+3264000D02*
X+471000Y+3264000D01*
X+471000Y+3282000D01*
X+489000Y+3300000D01*
X+492000Y+3300000D01*
X+492000Y+3264000D01*
G37*
%TD.AperFunction*%
%TA.AperFunction,Material*%
G36*
X+406000Y+3386000D02*
X+427000Y+3386000D01*
X+427000Y+3368000D01*
X+409000Y+3350000D01*
X+406000Y+3350000D01*
X+406000Y+3386000D01*
G37*
%TD.AperFunction*%
%TA.AperFunction,Material*%
G36*
X+449000Y+3359000D02*
X+483000Y+3325000D01*
X+449000Y+3291000D01*
X+415000Y+3325000D01*
X+449000Y+3359000D01*
G37*
%TD.AperFunction*%
D69*
X+185327Y+1282060D03*
X+385327Y+1282060D03*
X+585327Y+1282060D03*
X+785327Y+1282060D03*
X+985327Y+1282060D03*
X+1185327Y+1282060D03*
X+1385327Y+1282060D03*
X+1585327Y+1282060D03*
D74*
X+1733327Y+1582060D03*
X+1733327Y+1782060D03*
X+1733327Y+1982060D03*
X+1733327Y+2182060D03*
X+1733327Y+2382060D03*
X+1733327Y+2582060D03*
D69*
X+1585327Y+2882060D03*
X+1385327Y+2882060D03*
X+1185327Y+2882060D03*
X+985327Y+2882060D03*
X+785327Y+2882060D03*
X+585327Y+2882060D03*
X+385327Y+2882060D03*
X+185327Y+2882060D03*
D75*
X+906000Y+5066000D03*
D76*
X+406000Y+5066000D03*
D75*
X+1406000Y+5066000D03*
D76*
X+906000Y+5066000D03*
D77*
X+363000Y+4321000D03*
X+363000Y+4067000D03*
X+1273000Y+4067000D03*
X+1273000Y+4321000D03*
D78*
X+568835Y+3600200D03*
X+662815Y+3790700D03*
X+474855Y+3790700D03*
D79*
X+886000Y+3796000D03*
X+886000Y+3636000D03*
D80*
X+420000Y+1040000D03*
X+580000Y+1040000D03*
X+110000Y+1040000D03*
X+270000Y+1040000D03*
D81*
X+1446000Y+965000D03*
X+1580000Y+965000D03*
D82*
X+1410000Y+1100000D03*
X+1582720Y+1100000D03*
D83*
X+799000Y+3425000D03*
X+609000Y+3425000D03*
X+704000Y+3215000D03*
D80*
X+106000Y+3486000D03*
X+266000Y+3486000D03*
D84*
X+481512Y+3368000D03*
X+416488Y+3368000D03*
X+416488Y+3282000D03*
X+481512Y+3282000D03*
X+449000Y+3325000D03*
D85*
X+262000Y+3318000D03*
D86*
X+1462000Y+3318000D03*
D87*
X+183327Y+1382060D03*
D88*
X+383327Y+1382060D03*
X+583327Y+1382060D03*
X+783327Y+1382060D03*
X+983327Y+1382060D03*
X+1183325Y+1382060D03*
X+1383327Y+1382060D03*
X+1583327Y+1382060D03*
D87*
X+183327Y+2781677D03*
D88*
X+383327Y+2781677D03*
X+583327Y+2781677D03*
X+783327Y+2781677D03*
X+983327Y+2781677D03*
X+1183325Y+2781677D03*
X+1383327Y+2781677D03*
X+1583327Y+2781677D03*
D89*
X+54000Y+4357000D03*
D90*
X-46000Y+4033000D03*
D89*
X-146000Y+4357000D03*
D91*
X+1018000Y+3441000D03*
X+1018000Y+3291000D03*
D79*
X+1196696Y+3448000D03*
X+1196696Y+3288000D03*
D92*
X+656000Y+5066000D03*
X+1156000Y+5066000D03*
D93*
X+44000Y+3799000D03*
X+44000Y+3734000D03*
X+44000Y+3669000D03*
X+244000Y+3669000D03*
X+244000Y+3734000D03*
X+244000Y+3799000D03*
D79*
X+1116670Y+3796000D03*
X+1116670Y+3636000D03*
D81*
X+864000Y+1040000D03*
X+730000Y+1040000D03*
D94*
X-410000Y+3128000D03*
D92*
X-410000Y+3382000D03*
X-410000Y+3636000D03*
X-410000Y+3890000D03*
X-410000Y+4144000D03*
X-410000Y+4398000D03*
X-410000Y+4652000D03*
D95*
X-184000Y+3560000D03*
X-76000Y+3560000D03*
D96*
X+1354000Y+3824000D03*
X+1354000Y+3715000D03*
X+1354000Y+3606000D03*
D97*
X+492000Y+3386000D02*
X+471000Y+3386000D01*
X+471000Y+3368000D01*
X+489000Y+3350000D01*
X+492000Y+3350000D01*
X+492000Y+3386000D01*
X+406000Y+3264000D02*
X+427000Y+3264000D01*
X+427000Y+3282000D01*
X+409000Y+3300000D01*
X+406000Y+3300000D01*
X+406000Y+3264000D01*
X+492000Y+3264000D02*
X+471000Y+3264000D01*
X+471000Y+3282000D01*
X+489000Y+3300000D01*
X+492000Y+3300000D01*
X+492000Y+3264000D01*
X+406000Y+3386000D02*
X+427000Y+3386000D01*
X+427000Y+3368000D01*
X+409000Y+3350000D01*
X+406000Y+3350000D01*
X+406000Y+3386000D01*
X+449000Y+3359000D02*
X+483000Y+3325000D01*
X+449000Y+3291000D01*
X+415000Y+3325000D01*
X+449000Y+3359000D01*
D41*
X-671603Y+4737000D02*
X-671603Y+2937000D01*
X-5970Y+2937000D01*
X-5970Y+1236000D01*
X-672000Y+1236000D01*
X-672000Y+616000D01*
X+1788988Y+616000D01*
X+1788988Y+5337000D01*
X+28182Y+5337000D01*
X-671603Y+4737000D01*
M02*
