G04 PROTEUS GERBER X2 FILE*
%TF.GenerationSoftware,Labcenter,Proteus,8.16-SP3-Build36097*%
%TF.CreationDate,2024-09-26T16:34:03+00:00*%
%TF.FileFunction,AssemblyDrawing,Bot*%
%TF.FilePolarity,Positive*%
%TF.Part,Single*%
%TF.SameCoordinates,{f118cff8-fadb-4bc5-a17f-1c91f2e22e42}*%
%FSLAX45Y45*%
%MOMM*%
G01*
%TA.AperFunction,Material*%
%ADD156C,0.050000*%
%ADD163C,0.396240*%
%ADD164C,0.066630*%
%ADD63C,0.177800*%
%ADD162C,0.096520*%
%ADD182C,0.488000*%
%ADD183C,0.107740*%
%ADD165C,0.376000*%
%ADD166C,0.051640*%
%ADD66C,0.100000*%
%ADD184C,0.558800*%
%ADD185C,0.415060*%
%ADD167C,0.355600*%
%ADD168C,0.056890*%
%ADD155C,0.688000*%
%ADD186C,0.123100*%
%ADD187C,0.360000*%
%ADD188C,0.113070*%
%ADD189C,0.270000*%
%ADD190C,0.099070*%
%ADD191C,0.408000*%
%ADD192C,0.064440*%
%ADD176C,0.380000*%
%ADD193C,0.065240*%
%ADD194C,0.728000*%
%ADD195C,0.097770*%
%ADD196C,0.765000*%
%ADD197C,0.137400*%
%ADD198C,0.540000*%
%ADD199C,0.236900*%
%TA.AperFunction,Profile*%
%ADD41C,0.177800*%
%TD.AperFunction*%
D156*
X+1032000Y+2943000D02*
X+722000Y+2943000D01*
X+722000Y+3093000D01*
X+1032000Y+3093000D01*
X+1032000Y+2943000D01*
X+877000Y+3068000D02*
X+877000Y+2968000D01*
X+827000Y+3018000D02*
X+927000Y+3018000D01*
D163*
X+957000Y+3018000D02*
X+957000Y+3018000D01*
D164*
X+888316Y+2998009D02*
X+888316Y+3037990D01*
X+850834Y+3037990D01*
X+843337Y+3031327D01*
X+843337Y+3024663D01*
X+850834Y+3018000D01*
X+888316Y+3018000D01*
X+850834Y+3018000D02*
X+843337Y+3011336D01*
X+843337Y+2998009D01*
X+783365Y+3011336D02*
X+828344Y+3011336D01*
X+798358Y+3037990D01*
X+798358Y+2998009D01*
D156*
X+1345000Y+2943000D02*
X+1035000Y+2943000D01*
X+1035000Y+3093000D01*
X+1345000Y+3093000D01*
X+1345000Y+2943000D01*
X+1190000Y+3068000D02*
X+1190000Y+2968000D01*
X+1140000Y+3018000D02*
X+1240000Y+3018000D01*
D163*
X+1270000Y+3018000D02*
X+1270000Y+3018000D01*
D164*
X+1201316Y+2998009D02*
X+1201316Y+3037990D01*
X+1163834Y+3037990D01*
X+1156337Y+3031327D01*
X+1156337Y+3024663D01*
X+1163834Y+3018000D01*
X+1201316Y+3018000D01*
X+1163834Y+3018000D02*
X+1156337Y+3011336D01*
X+1156337Y+2998009D01*
X+1096365Y+3037990D02*
X+1133848Y+3037990D01*
X+1133848Y+3024663D01*
X+1103862Y+3024663D01*
X+1096365Y+3018000D01*
X+1096365Y+3004672D01*
X+1103862Y+2998009D01*
X+1126351Y+2998009D01*
X+1133848Y+3004672D01*
D156*
X+1348000Y+3093000D02*
X+1658000Y+3093000D01*
X+1658000Y+2943000D01*
X+1348000Y+2943000D01*
X+1348000Y+3093000D01*
X+1503000Y+2968000D02*
X+1503000Y+3068000D01*
X+1553000Y+3018000D02*
X+1453000Y+3018000D01*
D163*
X+1423000Y+3018000D02*
X+1423000Y+3018000D01*
D164*
X+1611628Y+2998009D02*
X+1611628Y+3037990D01*
X+1574146Y+3037990D01*
X+1566649Y+3031327D01*
X+1566649Y+3024663D01*
X+1574146Y+3018000D01*
X+1611628Y+3018000D01*
X+1574146Y+3018000D02*
X+1566649Y+3011336D01*
X+1566649Y+2998009D01*
X+1536663Y+3018000D02*
X+1544160Y+3024663D01*
X+1544160Y+3031327D01*
X+1536663Y+3037990D01*
X+1514174Y+3037990D01*
X+1506677Y+3031327D01*
X+1506677Y+3024663D01*
X+1514174Y+3018000D01*
X+1536663Y+3018000D01*
X+1544160Y+3011336D01*
X+1544160Y+3004672D01*
X+1536663Y+2998009D01*
X+1514174Y+2998009D01*
X+1506677Y+3004672D01*
X+1506677Y+3011336D01*
X+1514174Y+3018000D01*
D63*
X+1380310Y+4274700D02*
X+1687650Y+4274700D01*
X+1687650Y+4566800D01*
X+1380310Y+4566800D01*
X+1380310Y+4274700D01*
D162*
X+1620848Y+4391794D02*
X+1620848Y+4449706D01*
X+1577414Y+4449706D01*
X+1555697Y+4430402D01*
X+1555697Y+4411098D01*
X+1577414Y+4391794D01*
X+1620848Y+4391794D01*
X+1523122Y+4440054D02*
X+1512263Y+4449706D01*
X+1479688Y+4449706D01*
X+1468829Y+4440054D01*
X+1468829Y+4430402D01*
X+1479688Y+4420750D01*
X+1468829Y+4411098D01*
X+1468829Y+4401446D01*
X+1479688Y+4391794D01*
X+1512263Y+4391794D01*
X+1523122Y+4401446D01*
X+1501405Y+4420750D02*
X+1479688Y+4420750D01*
D63*
X+1380310Y+3925200D02*
X+1687650Y+3925200D01*
X+1687650Y+4217300D01*
X+1380310Y+4217300D01*
X+1380310Y+3925200D01*
D162*
X+1620848Y+4042294D02*
X+1620848Y+4100206D01*
X+1577414Y+4100206D01*
X+1555697Y+4080902D01*
X+1555697Y+4061598D01*
X+1577414Y+4042294D01*
X+1620848Y+4042294D01*
X+1468829Y+4061598D02*
X+1533980Y+4061598D01*
X+1490546Y+4100206D01*
X+1490546Y+4042294D01*
D156*
X-75000Y+4221598D02*
X-75000Y+4557598D01*
X+311000Y+4557598D01*
X+311000Y+4221598D01*
X-75000Y+4221598D01*
D182*
X+11000Y+4294602D02*
X+11000Y+4294602D01*
D183*
X+142128Y+4486564D02*
X+195998Y+4486564D01*
X+206772Y+4474444D01*
X+206772Y+4425961D01*
X+195998Y+4413840D01*
X+142128Y+4413840D01*
X+152902Y+4377478D02*
X+142128Y+4365357D01*
X+142128Y+4328995D01*
X+152902Y+4316874D01*
X+163676Y+4316874D01*
X+174450Y+4328995D01*
X+174450Y+4365357D01*
X+185224Y+4377478D01*
X+206772Y+4377478D01*
X+206772Y+4316874D01*
D156*
X-5000Y+4014000D02*
X+239000Y+4014000D01*
X+239000Y+4138000D01*
X-5000Y+4138000D01*
X-5000Y+4014000D01*
D165*
X+50000Y+4076000D02*
X+50000Y+4076000D01*
D166*
X+166769Y+4065672D02*
X+172579Y+4060508D01*
X+190007Y+4060508D01*
X+201626Y+4070836D01*
X+201626Y+4081164D01*
X+190007Y+4091492D01*
X+172579Y+4091492D01*
X+166769Y+4086328D01*
X+149341Y+4086328D02*
X+143531Y+4091492D01*
X+126103Y+4091492D01*
X+120293Y+4086328D01*
X+120293Y+4081164D01*
X+126103Y+4076000D01*
X+120293Y+4070836D01*
X+120293Y+4065672D01*
X+126103Y+4060508D01*
X+143531Y+4060508D01*
X+149341Y+4065672D01*
X+137722Y+4076000D02*
X+126103Y+4076000D01*
D156*
X-45000Y+4644000D02*
X+199000Y+4644000D01*
X+199000Y+4768000D01*
X-45000Y+4768000D01*
X-45000Y+4644000D01*
D165*
X+144000Y+4706000D02*
X+144000Y+4706000D01*
D166*
X+50469Y+4695672D02*
X+56279Y+4690508D01*
X+73707Y+4690508D01*
X+85326Y+4700836D01*
X+85326Y+4711164D01*
X+73707Y+4721492D01*
X+56279Y+4721492D01*
X+50469Y+4716328D01*
X+3993Y+4700836D02*
X+38850Y+4700836D01*
X+15612Y+4721492D01*
X+15612Y+4690508D01*
D66*
X-63000Y+2793000D02*
X+1787000Y+2793000D01*
X+1787000Y+3843000D01*
X-63000Y+3843000D01*
X-63000Y+2793000D01*
D184*
X+262000Y+3318000D02*
X+262000Y+3318000D01*
D185*
X+1134360Y+3234987D02*
X+1181054Y+3193480D01*
X+1321138Y+3193480D01*
X+1414527Y+3276493D01*
X+1414527Y+3359506D01*
X+1321138Y+3442519D01*
X+1181054Y+3442519D01*
X+1134360Y+3401012D01*
X+994276Y+3442519D02*
X+760803Y+3442519D01*
X+760803Y+3401012D01*
X+994276Y+3193480D01*
D63*
X+1215470Y+3963830D02*
X+1314530Y+3963830D01*
X+1314530Y+4225450D01*
X+1215470Y+4225450D01*
X+1215470Y+3963830D01*
D167*
X+1265000Y+4008280D02*
X+1265000Y+4008280D01*
D168*
X+1276380Y+4138557D02*
X+1282069Y+4144958D01*
X+1282069Y+4164160D01*
X+1270690Y+4176961D01*
X+1259311Y+4176961D01*
X+1247932Y+4164160D01*
X+1247932Y+4144958D01*
X+1253621Y+4138557D01*
X+1253621Y+4087351D02*
X+1247932Y+4093752D01*
X+1247932Y+4112954D01*
X+1253621Y+4119355D01*
X+1276380Y+4119355D01*
X+1282069Y+4112954D01*
X+1282069Y+4093752D01*
X+1276380Y+4087351D01*
X+1270690Y+4087351D01*
X+1265000Y+4093752D01*
X+1265000Y+4119355D01*
D156*
X+559000Y+4120800D02*
X+559000Y+3810800D01*
X+409000Y+3810800D01*
X+409000Y+4120800D01*
X+559000Y+4120800D01*
X+434000Y+3965800D02*
X+534000Y+3965800D01*
X+484000Y+3915800D02*
X+484000Y+4015800D01*
D163*
X+484000Y+4045800D02*
X+484000Y+4045800D01*
D164*
X+503991Y+4007102D02*
X+464010Y+4007102D01*
X+464010Y+3969620D01*
X+470673Y+3962123D01*
X+477337Y+3962123D01*
X+484000Y+3969620D01*
X+484000Y+4007102D01*
X+484000Y+3969620D02*
X+490664Y+3962123D01*
X+503991Y+3962123D01*
X+477337Y+3932137D02*
X+464010Y+3917144D01*
X+503991Y+3917144D01*
X+497328Y+3887158D02*
X+470673Y+3887158D01*
X+464010Y+3879662D01*
X+464010Y+3849676D01*
X+470673Y+3842179D01*
X+497328Y+3842179D01*
X+503991Y+3849676D01*
X+503991Y+3879662D01*
X+497328Y+3887158D01*
X+503991Y+3887158D02*
X+464010Y+3842179D01*
D156*
X+552000Y+3412002D02*
X+552000Y+3633998D01*
X+1052000Y+3633998D01*
X+1052000Y+3412002D01*
X+552000Y+3412002D01*
D155*
X+633000Y+3523000D02*
X+633000Y+3523000D01*
D186*
X+971745Y+3486068D02*
X+971745Y+3559931D01*
X+916348Y+3559931D01*
X+888649Y+3535310D01*
X+888649Y+3510689D01*
X+916348Y+3486068D01*
X+971745Y+3486068D01*
X+847101Y+3559931D02*
X+777854Y+3559931D01*
X+777854Y+3547621D01*
X+847101Y+3486068D01*
D66*
X+654000Y+3797000D02*
X+978000Y+3797000D01*
X+978000Y+4347000D01*
X+654000Y+4347000D01*
X+654000Y+3797000D01*
D187*
X+816000Y+4167000D02*
X+816000Y+4167000D01*
D188*
X+849922Y+4072265D02*
X+782078Y+4072265D01*
X+782078Y+4021383D01*
X+804693Y+3995942D01*
X+827307Y+3995942D01*
X+849922Y+4021383D01*
X+849922Y+4072265D01*
X+793385Y+3894177D02*
X+782078Y+3906897D01*
X+782078Y+3945059D01*
X+793385Y+3957780D01*
X+838615Y+3957780D01*
X+849922Y+3945059D01*
X+849922Y+3906897D01*
X+838615Y+3894177D01*
X+827307Y+3894177D01*
X+816000Y+3906897D01*
X+816000Y+3957780D01*
D156*
X+708974Y+4121307D02*
X+708974Y+3811307D01*
X+558974Y+3811307D01*
X+558974Y+4121307D01*
X+708974Y+4121307D01*
X+583974Y+3966307D02*
X+683974Y+3966307D01*
X+633974Y+3916307D02*
X+633974Y+4016307D01*
D163*
X+633974Y+4046307D02*
X+633974Y+4046307D01*
D164*
X+653965Y+3977623D02*
X+613984Y+3977623D01*
X+613984Y+3940141D01*
X+620647Y+3932644D01*
X+627311Y+3932644D01*
X+633974Y+3940141D01*
X+633974Y+3977623D01*
X+633974Y+3940141D02*
X+640638Y+3932644D01*
X+653965Y+3932644D01*
X+627311Y+3872672D02*
X+633974Y+3880169D01*
X+633974Y+3902658D01*
X+627311Y+3910155D01*
X+620647Y+3910155D01*
X+613984Y+3902658D01*
X+613984Y+3880169D01*
X+620647Y+3872672D01*
X+647302Y+3872672D01*
X+653965Y+3880169D01*
X+653965Y+3902658D01*
D156*
X+555000Y+4298000D02*
X+865000Y+4298000D01*
X+865000Y+4674000D01*
X+555000Y+4674000D01*
X+555000Y+4298000D01*
D189*
X+810000Y+4361000D02*
X+810000Y+4361000D01*
D190*
X+799165Y+4555222D02*
X+799165Y+4505685D01*
X+788020Y+4495778D01*
X+743437Y+4495778D01*
X+732292Y+4505685D01*
X+732292Y+4555222D01*
X+643127Y+4555222D02*
X+698855Y+4555222D01*
X+698855Y+4535407D01*
X+654272Y+4535407D01*
X+643127Y+4525500D01*
X+643127Y+4505685D01*
X+654272Y+4495778D01*
X+687709Y+4495778D01*
X+698855Y+4505685D01*
D156*
X+364000Y+4367000D02*
X+364000Y+4669000D01*
X+516000Y+4367000D02*
X+516000Y+4669000D01*
X+364000Y+4367000D02*
X+516000Y+4367000D01*
X+364000Y+4669000D02*
X+516000Y+4669000D01*
D191*
X+440000Y+4440000D02*
X+440000Y+4440000D01*
D192*
X+452888Y+4580449D02*
X+459332Y+4587699D01*
X+459332Y+4609447D01*
X+446444Y+4623946D01*
X+433556Y+4623946D01*
X+420668Y+4609447D01*
X+420668Y+4587699D01*
X+427112Y+4580449D01*
X+433556Y+4522453D02*
X+440000Y+4529703D01*
X+440000Y+4551451D01*
X+433556Y+4558701D01*
X+427112Y+4558701D01*
X+420668Y+4551451D01*
X+420668Y+4529703D01*
X+427112Y+4522453D01*
X+452888Y+4522453D01*
X+459332Y+4529703D01*
X+459332Y+4551451D01*
D156*
X+915000Y+4547000D02*
X+1159000Y+4547000D01*
X+1159000Y+4671000D01*
X+915000Y+4671000D01*
X+915000Y+4547000D01*
D165*
X+1104000Y+4609000D02*
X+1104000Y+4609000D01*
D166*
X+1033707Y+4598672D02*
X+1039517Y+4593508D01*
X+1056945Y+4593508D01*
X+1068564Y+4603836D01*
X+1068564Y+4614164D01*
X+1056945Y+4624492D01*
X+1039517Y+4624492D01*
X+1033707Y+4619328D01*
X+1010469Y+4614164D02*
X+998850Y+4624492D01*
X+998850Y+4593508D01*
X+975612Y+4598672D02*
X+975612Y+4619328D01*
X+969803Y+4624492D01*
X+946565Y+4624492D01*
X+940755Y+4619328D01*
X+940755Y+4598672D01*
X+946565Y+4593508D01*
X+969803Y+4593508D01*
X+975612Y+4598672D01*
X+975612Y+4593508D02*
X+940755Y+4624492D01*
D156*
X+392000Y+4119000D02*
X+692000Y+4119000D01*
X+692000Y+4269000D01*
X+392000Y+4269000D01*
X+392000Y+4119000D01*
D176*
X+462000Y+4194000D02*
X+462000Y+4194000D01*
D193*
X+675824Y+4174428D02*
X+675824Y+4213572D01*
X+639127Y+4213572D01*
X+631787Y+4207048D01*
X+631787Y+4200524D01*
X+639127Y+4194000D01*
X+675824Y+4194000D01*
X+639127Y+4194000D02*
X+631787Y+4187476D01*
X+631787Y+4174428D01*
X+602429Y+4200524D02*
X+587750Y+4213572D01*
X+587750Y+4174428D01*
X+551053Y+4207048D02*
X+543713Y+4213572D01*
X+521695Y+4213572D01*
X+514355Y+4207048D01*
X+514355Y+4200524D01*
X+521695Y+4194000D01*
X+543713Y+4194000D01*
X+551053Y+4187476D01*
X+551053Y+4174428D01*
X+514355Y+4174428D01*
D156*
X+969000Y+3830000D02*
X+1181000Y+3830000D01*
X+1181000Y+4242000D01*
X+969000Y+4242000D01*
X+969000Y+3830000D01*
D194*
X+1075000Y+3897000D02*
X+1075000Y+3897000D01*
D195*
X+1094555Y+4110949D02*
X+1104332Y+4121949D01*
X+1104332Y+4154947D01*
X+1084777Y+4176945D01*
X+1065223Y+4176945D01*
X+1045668Y+4154947D01*
X+1045668Y+4121949D01*
X+1055445Y+4110949D01*
X+1045668Y+4022954D02*
X+1045668Y+4077951D01*
X+1065223Y+4077951D01*
X+1065223Y+4033954D01*
X+1075000Y+4022954D01*
X+1094555Y+4022954D01*
X+1104332Y+4033954D01*
X+1104332Y+4066952D01*
X+1094555Y+4077951D01*
D66*
X+465000Y+4616000D02*
X+955000Y+4616000D01*
X+955000Y+5036000D01*
X+465000Y+5036000D01*
X+465000Y+4616000D01*
D196*
X+812000Y+4826000D02*
X+812000Y+4826000D01*
D197*
X+575654Y+4949665D02*
X+658097Y+4949665D01*
X+658097Y+4856917D01*
X+603135Y+4795084D02*
X+575654Y+4764168D01*
X+658097Y+4764168D01*
D66*
X-185000Y+3654000D02*
X+365000Y+3654000D01*
X+365000Y+3978000D01*
X-185000Y+3978000D01*
X-185000Y+3654000D01*
D187*
X+185000Y+3816000D02*
X+185000Y+3816000D01*
D188*
X+90265Y+3782078D02*
X+90265Y+3849922D01*
X+39383Y+3849922D01*
X+13942Y+3827307D01*
X+13942Y+3804693D01*
X+39383Y+3782078D01*
X+90265Y+3782078D01*
X-87823Y+3849922D02*
X-24220Y+3849922D01*
X-24220Y+3827307D01*
X-75103Y+3827307D01*
X-87823Y+3816000D01*
X-87823Y+3793385D01*
X-75103Y+3782078D01*
X-36941Y+3782078D01*
X-24220Y+3793385D01*
D66*
X-90000Y+480000D02*
X+1050000Y+480000D01*
X+1050000Y+1282000D01*
X-90000Y+1282000D01*
X-90000Y+480000D01*
D187*
X+610000Y+1115000D02*
X+610000Y+1115000D01*
D167*
X+800499Y+750389D02*
X+800499Y+714778D01*
X+760437Y+679167D01*
X+600188Y+679167D01*
X+560125Y+714778D01*
X+560125Y+892833D01*
X+399876Y+786000D02*
X+439938Y+821611D01*
X+439938Y+857222D01*
X+399876Y+892833D01*
X+279689Y+892833D01*
X+239626Y+857222D01*
X+239626Y+821611D01*
X+279689Y+786000D01*
X+399876Y+786000D01*
X+439938Y+750389D01*
X+439938Y+714778D01*
X+399876Y+679167D01*
X+279689Y+679167D01*
X+239626Y+714778D01*
X+239626Y+750389D01*
X+279689Y+786000D01*
D156*
X+478000Y+2444998D02*
X+1083000Y+2444998D01*
X+1083000Y+1715002D01*
X+478000Y+1715002D01*
X+478000Y+2444998D01*
D198*
X+580000Y+2230000D02*
X+580000Y+2230000D01*
D199*
X+869941Y+2293218D02*
X+893632Y+2293218D01*
X+917323Y+2266566D01*
X+917323Y+2159957D01*
X+893632Y+2133305D01*
X+775177Y+2133305D01*
X+822559Y+1920087D02*
X+846250Y+1946739D01*
X+846250Y+2026696D01*
X+822559Y+2053348D01*
X+798868Y+2053348D01*
X+775177Y+2026696D01*
X+775177Y+1946739D01*
X+798868Y+1920087D01*
X+893632Y+1920087D01*
X+917323Y+1946739D01*
X+917323Y+2026696D01*
D156*
X+145000Y+2025000D02*
X+455000Y+2025000D01*
X+455000Y+1875000D01*
X+145000Y+1875000D01*
X+145000Y+2025000D01*
X+300000Y+1900000D02*
X+300000Y+2000000D01*
X+350000Y+1950000D02*
X+250000Y+1950000D01*
D163*
X+220000Y+1950000D02*
X+220000Y+1950000D01*
D164*
X+438614Y+1930009D02*
X+438614Y+1969990D01*
X+401132Y+1969990D01*
X+393635Y+1963327D01*
X+393635Y+1956663D01*
X+401132Y+1950000D01*
X+438614Y+1950000D01*
X+401132Y+1950000D02*
X+393635Y+1943336D01*
X+393635Y+1930009D01*
X+363649Y+1956663D02*
X+348656Y+1969990D01*
X+348656Y+1930009D01*
X+273691Y+1963327D02*
X+281188Y+1969990D01*
X+303677Y+1969990D01*
X+311174Y+1963327D01*
X+311174Y+1936672D01*
X+303677Y+1930009D01*
X+281188Y+1930009D01*
X+273691Y+1936672D01*
X+273691Y+1943336D01*
X+281188Y+1950000D01*
X+311174Y+1950000D01*
D156*
X+145000Y+2230000D02*
X+455000Y+2230000D01*
X+455000Y+2080000D01*
X+145000Y+2080000D01*
X+145000Y+2230000D01*
X+300000Y+2105000D02*
X+300000Y+2205000D01*
X+350000Y+2155000D02*
X+250000Y+2155000D01*
D163*
X+220000Y+2155000D02*
X+220000Y+2155000D01*
D164*
X+438614Y+2135009D02*
X+438614Y+2174990D01*
X+401132Y+2174990D01*
X+393635Y+2168327D01*
X+393635Y+2161663D01*
X+401132Y+2155000D01*
X+438614Y+2155000D01*
X+401132Y+2155000D02*
X+393635Y+2148336D01*
X+393635Y+2135009D01*
X+363649Y+2161663D02*
X+348656Y+2174990D01*
X+348656Y+2135009D01*
X+311174Y+2174990D02*
X+273691Y+2174990D01*
X+273691Y+2168327D01*
X+311174Y+2135009D01*
D41*
X-671603Y+4737000D02*
X-671603Y+2937000D01*
X-5970Y+2937000D01*
X-5970Y+1236000D01*
X-672000Y+1236000D01*
X-672000Y+616000D01*
X+1788988Y+616000D01*
X+1788988Y+5337000D01*
X+28182Y+5337000D01*
X-671603Y+4737000D01*
D156*
X+1499000Y+1859000D02*
X+1499000Y+2169000D01*
X+1649000Y+2169000D01*
X+1649000Y+1859000D01*
X+1499000Y+1859000D01*
X+1624000Y+2014000D02*
X+1524000Y+2014000D01*
X+1574000Y+2064000D02*
X+1574000Y+1964000D01*
D163*
X+1574000Y+1934000D02*
X+1574000Y+1934000D01*
D164*
X+1593991Y+2152614D02*
X+1554010Y+2152614D01*
X+1554010Y+2115132D01*
X+1560673Y+2107635D01*
X+1567337Y+2107635D01*
X+1574000Y+2115132D01*
X+1574000Y+2152614D01*
X+1574000Y+2115132D02*
X+1580664Y+2107635D01*
X+1593991Y+2107635D01*
X+1567337Y+2077649D02*
X+1554010Y+2062656D01*
X+1593991Y+2062656D01*
X+1574000Y+2017677D02*
X+1567337Y+2025174D01*
X+1560673Y+2025174D01*
X+1554010Y+2017677D01*
X+1554010Y+1995188D01*
X+1560673Y+1987691D01*
X+1567337Y+1987691D01*
X+1574000Y+1995188D01*
X+1574000Y+2017677D01*
X+1580664Y+2025174D01*
X+1587328Y+2025174D01*
X+1593991Y+2017677D01*
X+1593991Y+1995188D01*
X+1587328Y+1987691D01*
X+1580664Y+1987691D01*
X+1574000Y+1995188D01*
D156*
X+552000Y+3219002D02*
X+552000Y+3440998D01*
X+1052000Y+3440998D01*
X+1052000Y+3219002D01*
X+552000Y+3219002D01*
D155*
X+633000Y+3330000D02*
X+633000Y+3330000D01*
D186*
X+971745Y+3293068D02*
X+971745Y+3366931D01*
X+916348Y+3366931D01*
X+888649Y+3342310D01*
X+888649Y+3317689D01*
X+916348Y+3293068D01*
X+971745Y+3293068D01*
X+833252Y+3330000D02*
X+847101Y+3342310D01*
X+847101Y+3354621D01*
X+833252Y+3366931D01*
X+791704Y+3366931D01*
X+777854Y+3354621D01*
X+777854Y+3342310D01*
X+791704Y+3330000D01*
X+833252Y+3330000D01*
X+847101Y+3317689D01*
X+847101Y+3305378D01*
X+833252Y+3293068D01*
X+791704Y+3293068D01*
X+777854Y+3305378D01*
X+777854Y+3317689D01*
X+791704Y+3330000D01*
D156*
X+165000Y+1658000D02*
X+409000Y+1658000D01*
X+409000Y+1782000D01*
X+165000Y+1782000D01*
X+165000Y+1658000D01*
D165*
X+354000Y+1720000D02*
X+354000Y+1720000D01*
D166*
X+283707Y+1709672D02*
X+289517Y+1704508D01*
X+306945Y+1704508D01*
X+318564Y+1714836D01*
X+318564Y+1725164D01*
X+306945Y+1735492D01*
X+289517Y+1735492D01*
X+283707Y+1730328D01*
X+260469Y+1725164D02*
X+248850Y+1735492D01*
X+248850Y+1704508D01*
X+219803Y+1730328D02*
X+213993Y+1735492D01*
X+196565Y+1735492D01*
X+190755Y+1730328D01*
X+190755Y+1725164D01*
X+196565Y+1720000D01*
X+213993Y+1720000D01*
X+219803Y+1714836D01*
X+219803Y+1704508D01*
X+190755Y+1704508D01*
D156*
X+266954Y+2941000D02*
X+266954Y+3251000D01*
X+416954Y+3251000D01*
X+416954Y+2941000D01*
X+266954Y+2941000D01*
X+391954Y+3096000D02*
X+291954Y+3096000D01*
X+341954Y+3146000D02*
X+341954Y+3046000D01*
D163*
X+341954Y+3016000D02*
X+341954Y+3016000D01*
D164*
X+361945Y+3234614D02*
X+321964Y+3234614D01*
X+321964Y+3197132D01*
X+328627Y+3189635D01*
X+335291Y+3189635D01*
X+341954Y+3197132D01*
X+341954Y+3234614D01*
X+341954Y+3197132D02*
X+348618Y+3189635D01*
X+361945Y+3189635D01*
X+335291Y+3159649D02*
X+321964Y+3144656D01*
X+361945Y+3144656D01*
X+335291Y+3069691D02*
X+341954Y+3077188D01*
X+341954Y+3099677D01*
X+335291Y+3107174D01*
X+328627Y+3107174D01*
X+321964Y+3099677D01*
X+321964Y+3077188D01*
X+328627Y+3069691D01*
X+355282Y+3069691D01*
X+361945Y+3077188D01*
X+361945Y+3099677D01*
D156*
X+563000Y+3251000D02*
X+563000Y+2941000D01*
X+413000Y+2941000D01*
X+413000Y+3251000D01*
X+563000Y+3251000D01*
X+438000Y+3096000D02*
X+538000Y+3096000D01*
X+488000Y+3046000D02*
X+488000Y+3146000D01*
D163*
X+488000Y+3176000D02*
X+488000Y+3176000D01*
D164*
X+507991Y+3137302D02*
X+468010Y+3137302D01*
X+468010Y+3099820D01*
X+474673Y+3092323D01*
X+481337Y+3092323D01*
X+488000Y+3099820D01*
X+488000Y+3137302D01*
X+488000Y+3099820D02*
X+494664Y+3092323D01*
X+507991Y+3092323D01*
X+474673Y+3069834D02*
X+468010Y+3062337D01*
X+468010Y+3039848D01*
X+474673Y+3032351D01*
X+481337Y+3032351D01*
X+488000Y+3039848D01*
X+488000Y+3062337D01*
X+494664Y+3069834D01*
X+507991Y+3069834D01*
X+507991Y+3032351D01*
X+501328Y+3017358D02*
X+474673Y+3017358D01*
X+468010Y+3009862D01*
X+468010Y+2979876D01*
X+474673Y+2972379D01*
X+501328Y+2972379D01*
X+507991Y+2979876D01*
X+507991Y+3009862D01*
X+501328Y+3017358D01*
X+507991Y+3017358D02*
X+468010Y+2972379D01*
M02*
