G04 PROTEUS GERBER X2 FILE*
%TF.GenerationSoftware,Labcenter,Proteus,8.16-SP3-Build36097*%
%TF.CreationDate,2024-09-26T16:34:03+00:00*%
%TF.FileFunction,Soldermask,Bot*%
%TF.FilePolarity,Negative*%
%TF.Part,Single*%
%TF.SameCoordinates,{f118cff8-fadb-4bc5-a17f-1c91f2e22e42}*%
%FSLAX45Y45*%
%MOMM*%
G01*
%AMPPAD065*
4,1,36,
0.742460,-0.792460,
-0.742460,-0.792460,
-0.752540,-0.791440,
-0.761920,-0.788530,
-0.770410,-0.783920,
-0.777810,-0.777810,
-0.783920,-0.770410,
-0.788530,-0.761920,
-0.791440,-0.752540,
-0.792460,-0.742460,
-0.792460,0.742460,
-0.791440,0.752540,
-0.788530,0.761920,
-0.783920,0.770410,
-0.777810,0.777810,
-0.770410,0.783920,
-0.761920,0.788530,
-0.752540,0.791440,
-0.742460,0.792460,
0.742460,0.792460,
0.752540,0.791440,
0.761920,0.788530,
0.770410,0.783920,
0.777810,0.777810,
0.783920,0.770410,
0.788530,0.761920,
0.791440,0.752540,
0.792460,0.742460,
0.792460,-0.742460,
0.791440,-0.752540,
0.788530,-0.761920,
0.783920,-0.770410,
0.777810,-0.777810,
0.770410,-0.783920,
0.761920,-0.788530,
0.752540,-0.791440,
0.742460,-0.792460,
0*%
%TA.AperFunction,Material*%
%ADD75PPAD065*%
%ADD76C,2.200000*%
%AMPPAD088*
4,1,4,
0.469900,0.495300,
-0.469900,0.495300,
-0.469900,-0.495300,
0.469900,-0.495300,
0.469900,0.495300,
0*%
%ADD98PPAD088*%
%AMPPAD089*
4,1,36,
-0.444500,-0.635000,
0.444500,-0.635000,
0.470090,-0.632420,
0.493930,-0.625020,
0.515500,-0.613310,
0.534300,-0.597800,
0.549810,-0.579000,
0.561520,-0.557430,
0.568920,-0.533590,
0.571500,-0.508000,
0.571500,0.508000,
0.568920,0.533590,
0.561520,0.557430,
0.549810,0.579000,
0.534300,0.597800,
0.515500,0.613310,
0.493930,0.625020,
0.470090,0.632420,
0.444500,0.635000,
-0.444500,0.635000,
-0.470090,0.632420,
-0.493930,0.625020,
-0.515500,0.613310,
-0.534300,0.597800,
-0.549810,0.579000,
-0.561520,0.557430,
-0.568920,0.533590,
-0.571500,0.508000,
-0.571500,-0.508000,
-0.568920,-0.533590,
-0.561520,-0.557430,
-0.549810,-0.579000,
-0.534300,-0.597800,
-0.515500,-0.613310,
-0.493930,-0.625020,
-0.470090,-0.632420,
-0.444500,-0.635000,
0*%
%TA.AperFunction,Material*%
%ADD99PPAD089*%
%AMPPAD090*
4,1,36,
-0.530000,-0.310000,
0.530000,-0.310000,
0.546120,-0.308370,
0.561130,-0.303710,
0.574720,-0.296330,
0.586560,-0.286560,
0.596330,-0.274720,
0.603710,-0.261130,
0.608370,-0.246120,
0.610000,-0.230000,
0.610000,0.230000,
0.608370,0.246120,
0.603710,0.261130,
0.596330,0.274720,
0.586560,0.286560,
0.574720,0.296330,
0.561130,0.303710,
0.546120,0.308370,
0.530000,0.310000,
-0.530000,0.310000,
-0.546120,0.308370,
-0.561130,0.303710,
-0.574720,0.296330,
-0.586560,0.286560,
-0.596330,0.274720,
-0.603710,0.261130,
-0.608370,0.246120,
-0.610000,0.230000,
-0.610000,-0.230000,
-0.608370,-0.246120,
-0.603710,-0.261130,
-0.596330,-0.274720,
-0.586560,-0.286560,
-0.574720,-0.296330,
-0.561130,-0.303710,
-0.546120,-0.308370,
-0.530000,-0.310000,
0*%
%ADD100PPAD090*%
%AMPPAD091*
4,1,4,
-0.405000,-0.470000,
0.405000,-0.470000,
0.405000,0.470000,
-0.405000,0.470000,
-0.405000,-0.470000,
0*%
%TA.AperFunction,Material*%
%ADD101PPAD091*%
%ADD85C,1.651000*%
%AMPPAD076*
4,1,36,
-0.698500,-0.825500,
0.698500,-0.825500,
0.724090,-0.822920,
0.747930,-0.815520,
0.769500,-0.803810,
0.788300,-0.788300,
0.803810,-0.769500,
0.815520,-0.747930,
0.822920,-0.724090,
0.825500,-0.698500,
0.825500,0.698500,
0.822920,0.724090,
0.815520,0.747930,
0.803810,0.769500,
0.788300,0.788300,
0.769500,0.803810,
0.747930,0.815520,
0.724090,0.822920,
0.698500,0.825500,
-0.698500,0.825500,
-0.724090,0.822920,
-0.747930,0.815520,
-0.769500,0.803810,
-0.788300,0.788300,
-0.803810,0.769500,
-0.815520,0.747930,
-0.822920,0.724090,
-0.825500,0.698500,
-0.825500,-0.698500,
-0.822920,-0.724090,
-0.815520,-0.747930,
-0.803810,-0.769500,
-0.788300,-0.788300,
-0.769500,-0.803810,
-0.747930,-0.815520,
-0.724090,-0.822920,
-0.698500,-0.825500,
0*%
%ADD86PPAD076*%
%AMPPAD092*
4,1,36,
0.571500,-0.444500,
0.571500,0.444500,
0.568920,0.470090,
0.561520,0.493930,
0.549810,0.515500,
0.534300,0.534300,
0.515500,0.549810,
0.493930,0.561520,
0.470090,0.568920,
0.444500,0.571500,
-0.444500,0.571500,
-0.470090,0.568920,
-0.493930,0.561520,
-0.515500,0.549810,
-0.534300,0.534300,
-0.549810,0.515500,
-0.561520,0.493930,
-0.568920,0.470090,
-0.571500,0.444500,
-0.571500,-0.444500,
-0.568920,-0.470090,
-0.561520,-0.493930,
-0.549810,-0.515500,
-0.534300,-0.534300,
-0.515500,-0.549810,
-0.493930,-0.561520,
-0.470090,-0.568920,
-0.444500,-0.571500,
0.444500,-0.571500,
0.470090,-0.568920,
0.493930,-0.561520,
0.515500,-0.549810,
0.534300,-0.534300,
0.549810,-0.515500,
0.561520,-0.493930,
0.568920,-0.470090,
0.571500,-0.444500,
0*%
%ADD102PPAD092*%
%AMPPAD093*
4,1,4,
-0.495300,0.469900,
-0.495300,-0.469900,
0.495300,-0.469900,
0.495300,0.469900,
-0.495300,0.469900,
0*%
%ADD103PPAD093*%
%AMPPAD094*
4,1,4,
-0.565000,-0.860000,
0.565000,-0.860000,
0.565000,0.860000,
-0.565000,0.860000,
-0.565000,-0.860000,
0*%
%ADD104PPAD094*%
%AMPPAD095*
4,1,4,
-0.450000,-0.400000,
0.450000,-0.400000,
0.450000,0.400000,
-0.450000,0.400000,
-0.450000,-0.400000,
0*%
%ADD105PPAD095*%
%AMPPAD096*
4,1,23,
0.150000,-0.400000,
0.150000,0.250000,
0.149230,0.265330,
0.146950,0.280230,
0.138210,0.308380,
0.124380,0.333860,
0.106060,0.356060,
0.083860,0.374380,
0.058380,0.388210,
0.030230,0.396950,
0.015330,0.399230,
0.000000,0.400000,
-0.015330,0.399230,
-0.030230,0.396950,
-0.058380,0.388210,
-0.083860,0.374380,
-0.106060,0.356060,
-0.124380,0.333860,
-0.138210,0.308380,
-0.146950,0.280230,
-0.149230,0.265330,
-0.150000,0.250000,
-0.150000,-0.400000,
0.150000,-0.400000,
0*%
%TA.AperFunction,Material*%
%ADD106PPAD096*%
%AMPPAD097*
4,1,23,
-0.150000,0.400000,
-0.150000,-0.250000,
-0.149230,-0.265330,
-0.146950,-0.280230,
-0.138210,-0.308380,
-0.124380,-0.333860,
-0.106060,-0.356060,
-0.083860,-0.374380,
-0.058380,-0.388210,
-0.030230,-0.396950,
-0.015330,-0.399230,
0.000000,-0.400000,
0.015330,-0.399230,
0.030230,-0.396950,
0.058380,-0.388210,
0.083860,-0.374380,
0.106060,-0.356060,
0.124380,-0.333860,
0.138210,-0.308380,
0.146950,-0.280230,
0.149230,-0.265330,
0.150000,-0.250000,
0.150000,0.400000,
-0.150000,0.400000,
0*%
%ADD107PPAD097*%
%AMPPAD098*
4,1,4,
1.050000,-0.650000,
1.050000,0.650000,
-1.050000,0.650000,
-1.050000,-0.650000,
1.050000,-0.650000,
0*%
%ADD108PPAD098*%
%AMPPAD099*
4,1,4,
0.510000,-0.480060,
0.510000,0.480060,
-0.510000,0.480060,
-0.510000,-0.480060,
0.510000,-0.480060,
0*%
%TA.AperFunction,Material*%
%ADD109PPAD099*%
%AMPPAD100*
4,1,4,
-0.450000,-0.475000,
0.450000,-0.475000,
0.450000,0.475000,
-0.450000,0.475000,
-0.450000,-0.475000,
0*%
%ADD110PPAD100*%
%AMPPAD101*
4,1,4,
0.910000,-0.525000,
0.910000,0.525000,
-0.910000,0.525000,
-0.910000,-0.525000,
0.910000,-0.525000,
0*%
%ADD111PPAD101*%
%AMPPAD077*
4,1,36,
-0.762000,-0.635000,
-0.762000,0.635000,
-0.759420,0.660590,
-0.752020,0.684430,
-0.740310,0.706000,
-0.724800,0.724800,
-0.706000,0.740310,
-0.684430,0.752020,
-0.660590,0.759420,
-0.635000,0.762000,
0.635000,0.762000,
0.660590,0.759420,
0.684430,0.752020,
0.706000,0.740310,
0.724800,0.724800,
0.740310,0.706000,
0.752020,0.684430,
0.759420,0.660590,
0.762000,0.635000,
0.762000,-0.635000,
0.759420,-0.660590,
0.752020,-0.684430,
0.740310,-0.706000,
0.724800,-0.724800,
0.706000,-0.740310,
0.684430,-0.752020,
0.660590,-0.759420,
0.635000,-0.762000,
-0.635000,-0.762000,
-0.660590,-0.759420,
-0.684430,-0.752020,
-0.706000,-0.740310,
-0.724800,-0.724800,
-0.740310,-0.706000,
-0.752020,-0.684430,
-0.759420,-0.660590,
-0.762000,-0.635000,
0*%
%TA.AperFunction,Material*%
%ADD87PPAD077*%
%ADD88C,1.340000*%
%AMPPAD102*
4,1,4,
0.425000,1.100000,
-0.425000,1.100000,
-0.425000,-1.100000,
0.425000,-1.100000,
0.425000,1.100000,
0*%
%TA.AperFunction,Material*%
%ADD112PPAD102*%
%AMPPAD103*
4,1,4,
-0.400000,0.450000,
-0.400000,-0.450000,
0.400000,-0.450000,
0.400000,0.450000,
-0.400000,0.450000,
0*%
%ADD113PPAD103*%
%AMPPAD104*
4,1,4,
0.200000,0.675000,
-0.200000,0.675000,
-0.200000,-0.675000,
0.200000,-0.675000,
0.200000,0.675000,
0*%
%TA.AperFunction,Material*%
%ADD114PPAD104*%
%AMPPAD105*
4,1,4,
1.050000,0.800000,
-1.050000,0.800000,
-1.050000,-0.800000,
1.050000,-0.800000,
1.050000,0.800000,
0*%
%ADD115PPAD105*%
%AMPPAD106*
4,1,4,
0.900000,0.950000,
-0.900000,0.950000,
-0.900000,-0.950000,
0.900000,-0.950000,
0.900000,0.950000,
0*%
%ADD116PPAD106*%
%AMPPAD107*
4,1,4,
0.950000,0.950000,
-0.950000,0.950000,
-0.950000,-0.950000,
0.950000,-0.950000,
0.950000,0.950000,
0*%
%ADD117PPAD107*%
%TA.AperFunction,Material*%
%ADD92C,1.650000*%
%AMPPAD108*
4,1,4,
-0.775000,0.300000,
-0.775000,-0.300000,
0.775000,-0.300000,
0.775000,0.300000,
-0.775000,0.300000,
0*%
%TA.AperFunction,Material*%
%ADD118PPAD108*%
%AMPPAD109*
4,1,4,
-0.900000,0.600000,
-0.900000,-0.600000,
0.900000,-0.600000,
0.900000,0.600000,
-0.900000,0.600000,
0*%
%ADD119PPAD109*%
%TA.AperFunction,Material*%
%ADD120C,2.516000*%
%AMPPAD084*
4,1,4,
-0.825000,-0.825000,
-0.825000,0.825000,
0.825000,0.825000,
0.825000,-0.825000,
-0.825000,-0.825000,
0*%
%TA.AperFunction,Material*%
%ADD94PPAD084*%
%TA.AperFunction,Profile*%
%ADD41C,0.177800*%
%TD.AperFunction*%
D75*
X+906000Y+5066000D03*
D76*
X+406000Y+5066000D03*
D75*
X+1406000Y+5066000D03*
D76*
X+906000Y+5066000D03*
D98*
X+957000Y+3018000D03*
X+797000Y+3018000D03*
X+1270000Y+3018000D03*
X+1110000Y+3018000D03*
X+1423000Y+3018000D03*
X+1583000Y+3018000D03*
D99*
X+1627960Y+4325500D03*
X+1533980Y+4516000D03*
X+1440000Y+4325500D03*
X+1627960Y+3976000D03*
X+1533980Y+4166500D03*
X+1440000Y+3976000D03*
D100*
X+11000Y+4294602D03*
X+11000Y+4484594D03*
X+225000Y+4389598D03*
D101*
X+50000Y+4076000D03*
X+184000Y+4076000D03*
X+144000Y+4706000D03*
X+10000Y+4706000D03*
D85*
X+262000Y+3318000D03*
D86*
X+1462000Y+3318000D03*
D102*
X+1265000Y+4008280D03*
X+1265000Y+4181000D03*
D103*
X+484000Y+4045800D03*
X+484000Y+3885800D03*
D104*
X+633000Y+3523000D03*
X+971000Y+3523000D03*
D105*
X+816000Y+4167000D03*
X+816000Y+3937000D03*
D103*
X+633974Y+4046307D03*
X+633974Y+3886307D03*
D106*
X+810000Y+4361000D03*
X+760000Y+4361000D03*
X+710000Y+4361000D03*
X+660000Y+4361000D03*
X+610000Y+4361000D03*
D107*
X+610000Y+4611000D03*
X+660000Y+4611000D03*
X+710000Y+4611000D03*
X+760000Y+4611000D03*
X+810000Y+4611000D03*
D108*
X+710000Y+4486000D03*
D109*
X+440000Y+4440000D03*
X+440000Y+4596000D03*
D101*
X+1104000Y+4609000D03*
X+970000Y+4609000D03*
D110*
X+462000Y+4194000D03*
X+622000Y+4194000D03*
D111*
X+1075000Y+3897000D03*
X+1075000Y+4175000D03*
D87*
X+183327Y+1382060D03*
D88*
X+383327Y+1382060D03*
X+583327Y+1382060D03*
X+783327Y+1382060D03*
X+983327Y+1382060D03*
X+1183325Y+1382060D03*
X+1383327Y+1382060D03*
X+1583327Y+1382060D03*
D87*
X+183327Y+2781677D03*
D88*
X+383327Y+2781677D03*
X+583327Y+2781677D03*
X+783327Y+2781677D03*
X+983327Y+2781677D03*
X+1183325Y+2781677D03*
X+1383327Y+2781677D03*
X+1583327Y+2781677D03*
D112*
X+812000Y+4826000D03*
X+608000Y+4826000D03*
D113*
X+185000Y+3816000D03*
X-45000Y+3816000D03*
D114*
X+610000Y+1115000D03*
X+545000Y+1115000D03*
X+480000Y+1115000D03*
X+415000Y+1115000D03*
X+350000Y+1115000D03*
D115*
X+790000Y+1102000D03*
X+170000Y+1102000D03*
D116*
X+860000Y+847000D03*
D117*
X+600000Y+847000D03*
X+360000Y+847000D03*
D116*
X+100000Y+847000D03*
D92*
X+656000Y+5066000D03*
X+1156000Y+5066000D03*
D118*
X+580000Y+2230000D03*
X+580000Y+2130000D03*
X+580000Y+2030000D03*
X+580000Y+1930000D03*
D119*
X+967494Y+2360000D03*
X+967494Y+1800000D03*
D98*
X+220000Y+1950000D03*
X+380000Y+1950000D03*
X+220000Y+2155000D03*
X+380000Y+2155000D03*
D120*
X+965000Y+1585000D03*
X+1195000Y+1585000D03*
X+1410000Y+1585000D03*
D94*
X-410000Y+3128000D03*
D92*
X-410000Y+3382000D03*
X-410000Y+3636000D03*
X-410000Y+3890000D03*
X-410000Y+4144000D03*
X-410000Y+4398000D03*
X-410000Y+4652000D03*
D103*
X+1574000Y+1934000D03*
X+1574000Y+2094000D03*
D104*
X+633000Y+3330000D03*
X+971000Y+3330000D03*
D101*
X+354000Y+1720000D03*
X+220000Y+1720000D03*
D103*
X+341954Y+3016000D03*
X+341954Y+3176000D03*
X+488000Y+3176000D03*
X+488000Y+3016000D03*
D41*
X-671603Y+4737000D02*
X-671603Y+2937000D01*
X-5970Y+2937000D01*
X-5970Y+1236000D01*
X-672000Y+1236000D01*
X-672000Y+616000D01*
X+1788988Y+616000D01*
X+1788988Y+5337000D01*
X+28182Y+5337000D01*
X-671603Y+4737000D01*
M02*
