G04 PROTEUS GERBER X2 FILE*
%TF.GenerationSoftware,Labcenter,Proteus,8.16-SP3-Build36097*%
%TF.CreationDate,2024-09-26T16:34:03+00:00*%
%TF.FileFunction,Copper,L1,Top*%
%TF.FilePolarity,Positive*%
%TF.Part,Single*%
%TF.SameCoordinates,{f118cff8-fadb-4bc5-a17f-1c91f2e22e42}*%
%FSLAX45Y45*%
%MOMM*%
G01*
%TA.AperFunction,Conductor*%
%ADD10C,0.254000*%
%ADD11C,0.508000*%
%ADD12C,0.304800*%
%ADD13C,0.203200*%
%TA.AperFunction,ViaPad*%
%ADD14C,0.600000*%
%TA.AperFunction,SMDPad,CuDef*%
%ADD15R,1.200000X2.000000*%
%ADD16R,2.000000X1.200000*%
%TA.AperFunction,ComponentPad*%
%ADD17R,1.484920X1.484920*%
%ADD18C,2.100000*%
%TA.AperFunction,SMDPad,CuDef*%
%ADD19R,2.100000X1.450000*%
%TA.AperFunction,SMDPad,CuDef*%
%ADD70R,0.889000X1.016000*%
%TA.AperFunction,SMDPad,CuDef*%
%ADD71R,0.990600X0.939800*%
%ADD20R,0.939800X0.990600*%
%ADD21R,0.810000X0.940000*%
%ADD22R,0.889000X0.889000*%
%TA.AperFunction,SMDPad,CuDef*%
%ADD23R,0.600000X1.250000*%
%TA.AperFunction,SMDPad,CuDef*%
%ADD24R,0.050000X0.050000*%
%AMPPAD017*
4,1,5,
0.155030,0.230000,
-0.155030,0.230000,
-0.155030,0.000000,
0.074970,-0.230000,
0.155030,-0.230000,
0.155030,0.230000,
0*%
%ADD25PPAD017*%
%AMPPAD018*
4,1,5,
-0.155030,0.230000,
0.155030,0.230000,
0.155030,0.000000,
-0.074970,-0.230000,
-0.155030,-0.230000,
-0.155030,0.230000,
0*%
%ADD26PPAD018*%
%AMPPAD019*
4,1,5,
-0.155030,-0.230000,
0.155030,-0.230000,
0.155030,0.000000,
-0.074970,0.230000,
-0.155030,0.230000,
-0.155030,-0.230000,
0*%
%ADD27PPAD019*%
%AMPPAD020*
4,1,5,
0.155030,-0.230000,
-0.155030,-0.230000,
-0.155030,0.000000,
0.074970,0.230000,
0.155030,0.230000,
0.155030,-0.230000,
0*%
%ADD28PPAD020*%
%AMPPAD021*
4,1,4,
0.000000,0.410000,
0.410000,0.000000,
0.000000,-0.410000,
-0.410000,0.000000,
0.000000,0.410000,
0*%
%ADD29PPAD021*%
%TA.AperFunction,ComponentPad*%
%ADD72C,1.397000*%
%ADD73R,1.397000X1.397000*%
%TA.AperFunction,ComponentPad*%
%ADD30R,1.270000X1.270000*%
%ADD31C,1.240000*%
%TA.AperFunction,SMDPad,CuDef*%
%ADD32R,1.200000X1.200000*%
%ADD33R,1.600000X1.500000*%
%TA.AperFunction,SMDPad,CuDef*%
%ADD34R,0.950000X0.950000*%
%TA.AperFunction,OtherPad,Unknown*%
%ADD35C,1.650000*%
%TA.AperFunction,SMDPad,CuDef*%
%ADD36R,1.150000X0.450000*%
%TA.AperFunction,WasherPad*%
%ADD37R,1.650000X1.650000*%
%TA.AperFunction,ComponentPad*%
%ADD38C,1.650000*%
%TA.AperFunction,SMDPad,CuDef*%
%ADD39R,0.900000X1.300000*%
%ADD40R,1.300000X0.900000*%
%TA.AperFunction,Profile*%
%ADD41C,0.177800*%
%TD.AperFunction*%
%TA.AperFunction,Conductor*%
G36*
X+1731838Y+2669999D02*
X+1605388Y+2669999D01*
X+1605388Y+2494121D01*
X+1731838Y+2494121D01*
X+1731838Y+2469999D01*
X+1605388Y+2469999D01*
X+1605388Y+2294121D01*
X+1731838Y+2294121D01*
X+1731838Y+2269999D01*
X+1605388Y+2269999D01*
X+1605388Y+2094121D01*
X+1731838Y+2094121D01*
X+1731838Y+2069999D01*
X+1605388Y+2069999D01*
X+1605388Y+1894121D01*
X+1731838Y+1894121D01*
X+1731838Y+1869999D01*
X+1605388Y+1869999D01*
X+1605388Y+1837779D01*
X+1603817Y+1839350D01*
X+1555819Y+1839350D01*
X+1521879Y+1805410D01*
X+1521879Y+1757412D01*
X+1555819Y+1723472D01*
X+1603817Y+1723472D01*
X+1605388Y+1725043D01*
X+1605388Y+1694121D01*
X+1731838Y+1694121D01*
X+1731838Y+1669999D01*
X+1605388Y+1669999D01*
X+1605388Y+1494121D01*
X+1731838Y+1494121D01*
X+1731838Y+673150D01*
X-614850Y+673150D01*
X-614850Y+1178851D01*
X+17702Y+1178851D01*
X+51180Y+1212329D01*
X+51180Y+1565348D01*
X+142688Y+1473840D01*
X+142688Y+1473499D01*
X+91888Y+1473499D01*
X+91888Y+1290621D01*
X+97388Y+1290621D01*
X+97388Y+1154121D01*
X+155849Y+1154121D01*
X+195071Y+1114899D01*
X+195071Y+980639D01*
X+186833Y+980639D01*
X+184929Y+982543D01*
X+184929Y+1117469D01*
X+35071Y+1117469D01*
X+35071Y+962531D01*
X+89997Y+962531D01*
X+153167Y+899361D01*
X+1221167Y+899361D01*
X+1311167Y+809361D01*
X+1538701Y+809361D01*
X+1556001Y+792061D01*
X+1603999Y+792061D01*
X+1637939Y+826001D01*
X+1637939Y+873999D01*
X+1633339Y+878599D01*
X+1633339Y+890061D01*
X+1648439Y+890061D01*
X+1648439Y+1027611D01*
X+1655109Y+1027611D01*
X+1655109Y+1154121D01*
X+1673266Y+1154121D01*
X+1673266Y+1419314D01*
X+1620581Y+1471999D01*
X+1546073Y+1471999D01*
X+1493388Y+1419314D01*
X+1493388Y+1344806D01*
X+1497388Y+1340806D01*
X+1497388Y+1154121D01*
X+1510331Y+1154121D01*
X+1510331Y+1039939D01*
X+1482389Y+1039939D01*
X+1482389Y+1172389D01*
X+1473266Y+1172389D01*
X+1473266Y+1419314D01*
X+1420581Y+1471999D01*
X+1346073Y+1471999D01*
X+1293388Y+1419314D01*
X+1293388Y+1344806D01*
X+1297388Y+1340806D01*
X+1297388Y+1154121D01*
X+1337611Y+1154121D01*
X+1337611Y+1027611D01*
X+1377561Y+1027611D01*
X+1377561Y+890639D01*
X+1344833Y+890639D01*
X+1254833Y+980639D01*
X+932439Y+980639D01*
X+932439Y+1114939D01*
X+661561Y+1114939D01*
X+661561Y+1080639D01*
X+654929Y+1080639D01*
X+654929Y+1117469D01*
X+620639Y+1117469D01*
X+620639Y+1154121D01*
X+673266Y+1154121D01*
X+673266Y+1419314D01*
X+644338Y+1448242D01*
X+719673Y+1448242D01*
X+720994Y+1446920D01*
X+693388Y+1419314D01*
X+693388Y+1344806D01*
X+697388Y+1340806D01*
X+697388Y+1154121D01*
X+873266Y+1154121D01*
X+873266Y+1419314D01*
X+820581Y+1471999D01*
X+810860Y+1471999D01*
X+753339Y+1529520D01*
X+541692Y+1529520D01*
X+565439Y+1553267D01*
X+565439Y+1577733D01*
X+724639Y+1736933D01*
X+724639Y+2713172D01*
X+746073Y+2691738D01*
X+820581Y+2691738D01*
X+873266Y+2744423D01*
X+873266Y+3009999D01*
X+718041Y+3009999D01*
X+671918Y+3056122D01*
X+671918Y+3056819D01*
X+637978Y+3090759D01*
X+589980Y+3090759D01*
X+556040Y+3056819D01*
X+556040Y+3009999D01*
X+497388Y+3009999D01*
X+497388Y+2822931D01*
X+493388Y+2818931D01*
X+493388Y+2744423D01*
X+546073Y+2691738D01*
X+620581Y+2691738D01*
X+643361Y+2714518D01*
X+643361Y+1770599D01*
X+604154Y+1731392D01*
X+604154Y+1733784D01*
X+570214Y+1767724D01*
X+545748Y+1767724D01*
X+322639Y+1990833D01*
X+322639Y+2715172D01*
X+346073Y+2691738D01*
X+420581Y+2691738D01*
X+473266Y+2744423D01*
X+473266Y+3009999D01*
X+423966Y+3009999D01*
X+423966Y+3015942D01*
X+188275Y+3251633D01*
X+188275Y+3253430D01*
X+221494Y+3220211D01*
X+302506Y+3220211D01*
X+359789Y+3277494D01*
X+359789Y+3358506D01*
X+309764Y+3408531D01*
X+340929Y+3408531D01*
X+340929Y+3414361D01*
X+373055Y+3414361D01*
X+373055Y+3231061D01*
X+524945Y+3231061D01*
X+524945Y+3241361D01*
X+620167Y+3241361D01*
X+646061Y+3215467D01*
X+646061Y+3124561D01*
X+709188Y+3124561D01*
X+709188Y+3105084D01*
X+743128Y+3071144D01*
X+791126Y+3071144D01*
X+825066Y+3105084D01*
X+825066Y+3153082D01*
X+791126Y+3187022D01*
X+770252Y+3187022D01*
X+761939Y+3195335D01*
X+761939Y+3305439D01*
X+671033Y+3305439D01*
X+653833Y+3322639D01*
X+524945Y+3322639D01*
X+524945Y+3413361D01*
X+551061Y+3413361D01*
X+551061Y+3334561D01*
X+666939Y+3334561D01*
X+666939Y+3498039D01*
X+741061Y+3498039D01*
X+741061Y+3334561D01*
X+856939Y+3334561D01*
X+856939Y+3498039D01*
X+942561Y+3498039D01*
X+942561Y+3215561D01*
X+1093439Y+3215561D01*
X+1093439Y+3250361D01*
X+1119227Y+3250361D01*
X+1119227Y+3213071D01*
X+1243361Y+3213071D01*
X+1243361Y+3009999D01*
X+1097388Y+3009999D01*
X+1097388Y+2822933D01*
X+1093386Y+2818931D01*
X+1093386Y+2744423D01*
X+1146071Y+2691738D01*
X+1220579Y+2691738D01*
X+1243361Y+2714520D01*
X+1243361Y+2565133D01*
X+942688Y+2264460D01*
X+942688Y+1468614D01*
X+893388Y+1419314D01*
X+893388Y+1344806D01*
X+897388Y+1340806D01*
X+897388Y+1154121D01*
X+1073266Y+1154121D01*
X+1073266Y+1419314D01*
X+1023966Y+1468614D01*
X+1023966Y+2230794D01*
X+1251339Y+2458167D01*
X+1251339Y+2444844D01*
X+1266077Y+2430106D01*
X+1286921Y+2430106D01*
X+1301659Y+2444844D01*
X+1301659Y+2465688D01*
X+1286921Y+2480426D01*
X+1273598Y+2480426D01*
X+1324639Y+2531467D01*
X+1324639Y+2713172D01*
X+1346073Y+2691738D01*
X+1420581Y+2691738D01*
X+1473266Y+2744423D01*
X+1473266Y+3009999D01*
X+1324639Y+3009999D01*
X+1324639Y+3185779D01*
X+1337578Y+3172840D01*
X+1358422Y+3172840D01*
X+1373160Y+3187578D01*
X+1373160Y+3208422D01*
X+1358422Y+3223160D01*
X+1337578Y+3223160D01*
X+1324639Y+3210221D01*
X+1324639Y+3450387D01*
X+1342639Y+3468387D01*
X+1342639Y+3533061D01*
X+1415614Y+3533061D01*
X+1532886Y+3415789D01*
X+1364211Y+3415789D01*
X+1364211Y+3220211D01*
X+1559789Y+3220211D01*
X+1559789Y+3388886D01*
X+1569706Y+3378969D01*
X+1569706Y+3372463D01*
X+1603646Y+3338523D01*
X+1651644Y+3338523D01*
X+1685584Y+3372463D01*
X+1685584Y+3420461D01*
X+1651644Y+3454401D01*
X+1645138Y+3454401D01*
X+1518001Y+3581538D01*
X+1518001Y+4151431D01*
X+1405939Y+4263493D01*
X+1405939Y+4421439D01*
X+1326339Y+4421439D01*
X+1326339Y+4472367D01*
X+1163821Y+4634885D01*
X+914547Y+4634885D01*
X+711339Y+4838093D01*
X+711339Y+4853639D01*
X+707869Y+4855076D01*
X+1075703Y+4855076D01*
X+1080303Y+4850476D01*
X+1128301Y+4850476D01*
X+1162241Y+4884416D01*
X+1162241Y+4932414D01*
X+1139094Y+4955561D01*
X+1201745Y+4955561D01*
X+1266439Y+5020255D01*
X+1266439Y+5111745D01*
X+1201745Y+5176439D01*
X+1110255Y+5176439D01*
X+1045561Y+5111745D01*
X+1045561Y+5020255D01*
X+1099462Y+4966354D01*
X+1080303Y+4966354D01*
X+1075703Y+4961754D01*
X+989758Y+4961754D01*
X+991819Y+4963815D01*
X+1008185Y+4963815D01*
X+1008185Y+4980181D01*
X+1038939Y+5010935D01*
X+1038939Y+5121065D01*
X+1008185Y+5151819D01*
X+1008185Y+5168185D01*
X+991819Y+5168185D01*
X+961065Y+5198939D01*
X+850935Y+5198939D01*
X+820181Y+5168185D01*
X+803815Y+5168185D01*
X+803815Y+5151819D01*
X+773061Y+5121065D01*
X+773061Y+5010935D01*
X+803815Y+4980181D01*
X+803815Y+4963815D01*
X+820181Y+4963815D01*
X+822242Y+4961754D01*
X+707938Y+4961754D01*
X+766439Y+5020255D01*
X+766439Y+5111745D01*
X+701745Y+5176439D01*
X+610255Y+5176439D01*
X+545561Y+5111745D01*
X+545561Y+5020255D01*
X+604062Y+4961754D01*
X+583676Y+4961754D01*
X+536717Y+5008713D01*
X+538939Y+5010935D01*
X+538939Y+5121065D01*
X+461065Y+5198939D01*
X+350935Y+5198939D01*
X+273061Y+5121065D01*
X+273061Y+5010935D01*
X+319821Y+4964175D01*
X+319821Y+4421439D01*
X+230061Y+4421439D01*
X+230061Y+4220561D01*
X+495939Y+4220561D01*
X+495939Y+4421439D01*
X+406179Y+4421439D01*
X+406179Y+4767883D01*
X+416001Y+4758061D01*
X+463999Y+4758061D01*
X+468599Y+4762661D01*
X+635906Y+4762661D01*
X+870359Y+4528209D01*
X+1119633Y+4528209D01*
X+1219661Y+4428181D01*
X+1219661Y+4421439D01*
X+1140061Y+4421439D01*
X+1140061Y+4220561D01*
X+1298007Y+4220561D01*
X+1351129Y+4167439D01*
X+1140061Y+4167439D01*
X+1140061Y+4030846D01*
X+963469Y+3854254D01*
X+963469Y+3870929D01*
X+808531Y+3870929D01*
X+808531Y+3836639D01*
X+735204Y+3836639D01*
X+735204Y+3869439D01*
X+590426Y+3869439D01*
X+590426Y+3711961D01*
X+735204Y+3711961D01*
X+735204Y+3755361D01*
X+808531Y+3755361D01*
X+808531Y+3721071D01*
X+963469Y+3721071D01*
X+963469Y+3755361D01*
X+979520Y+3755361D01*
X+1039201Y+3815042D01*
X+1039201Y+3721071D01*
X+1194139Y+3721071D01*
X+1194139Y+3755361D01*
X+1247983Y+3755361D01*
X+1261061Y+3768439D01*
X+1261061Y+3744534D01*
X+1213361Y+3696834D01*
X+1213361Y+3522929D01*
X+1119227Y+3522929D01*
X+1119227Y+3373071D01*
X+1243361Y+3373071D01*
X+1243361Y+3362929D01*
X+1119227Y+3362929D01*
X+1119227Y+3331639D01*
X+1093439Y+3331639D01*
X+1093439Y+3516439D01*
X+1058639Y+3516439D01*
X+1058639Y+3520497D01*
X+1099213Y+3561071D01*
X+1194139Y+3561071D01*
X+1194139Y+3710929D01*
X+1039201Y+3710929D01*
X+1039201Y+3616003D01*
X+1002515Y+3579317D01*
X+963469Y+3579317D01*
X+963469Y+3710929D01*
X+808531Y+3710929D01*
X+808531Y+3579317D01*
X+647190Y+3579317D01*
X+641224Y+3585283D01*
X+641224Y+3678939D01*
X+496446Y+3678939D01*
X+496446Y+3640839D01*
X+329439Y+3640839D01*
X+329439Y+3741061D01*
X+371999Y+3741061D01*
X+402466Y+3771528D01*
X+402466Y+3711961D01*
X+547244Y+3711961D01*
X+547244Y+3869439D01*
X+402466Y+3869439D01*
X+402466Y+3826472D01*
X+371999Y+3856939D01*
X+324001Y+3856939D01*
X+316501Y+3849439D01*
X+158561Y+3849439D01*
X+158561Y+3802278D01*
X+129439Y+3831400D01*
X+129439Y+3849439D01*
X-41439Y+3849439D01*
X-41439Y+3839639D01*
X-302167Y+3839639D01*
X-303172Y+3840644D01*
X-299561Y+3844255D01*
X-299561Y+3935745D01*
X-364255Y+4000439D01*
X-455745Y+4000439D01*
X-520439Y+3935745D01*
X-520439Y+3844255D01*
X-455745Y+3779561D01*
X-364255Y+3779561D01*
X-360644Y+3783172D01*
X-340472Y+3763000D01*
X-360644Y+3742828D01*
X-364255Y+3746439D01*
X-455745Y+3746439D01*
X-520439Y+3681745D01*
X-520439Y+3590255D01*
X-455745Y+3525561D01*
X-364255Y+3525561D01*
X-299561Y+3590255D01*
X-299561Y+3681745D01*
X-303172Y+3685356D01*
X-295167Y+3693361D01*
X-41439Y+3693361D01*
X-41439Y+3652939D01*
X-256939Y+3652939D01*
X-256939Y+3467061D01*
X-243607Y+3467061D01*
X-243607Y+3440573D01*
X-225673Y+3422639D01*
X-299561Y+3422639D01*
X-299561Y+3427745D01*
X-364255Y+3492439D01*
X-455745Y+3492439D01*
X-520439Y+3427745D01*
X-520439Y+3336255D01*
X-455745Y+3271561D01*
X-364255Y+3271561D01*
X-299561Y+3336255D01*
X-299561Y+3341361D01*
X-144848Y+3341361D01*
X+16574Y+3179939D01*
X+6001Y+3179939D01*
X-11299Y+3162639D01*
X-299561Y+3162639D01*
X-299561Y+3238439D01*
X-489979Y+3238439D01*
X-476840Y+3251578D01*
X-476840Y+3272422D01*
X-491578Y+3287160D01*
X-512422Y+3287160D01*
X-527160Y+3272422D01*
X-527160Y+3251578D01*
X-514021Y+3238439D01*
X-520439Y+3238439D01*
X-520439Y+3017561D01*
X-299561Y+3017561D01*
X-299561Y+3081361D01*
X-242577Y+3081361D01*
X-243939Y+3079999D01*
X-243939Y+3032001D01*
X-209999Y+2998061D01*
X-162001Y+2998061D01*
X-144701Y+3015361D01*
X-57133Y+3015361D01*
X-35922Y+2994150D01*
X-614453Y+2994150D01*
X-614453Y+4710721D01*
X+49327Y+5279850D01*
X+1731838Y+5279850D01*
X+1731838Y+2669999D01*
G37*
%TD.AperFunction*%
%LPC*%
G36*
X+1273264Y+1419314D02*
X+1273264Y+1409999D01*
X+1273266Y+1409999D01*
X+1273266Y+1154121D01*
X+1097388Y+1154121D01*
X+1097388Y+1340804D01*
X+1093386Y+1344806D01*
X+1093386Y+1419314D01*
X+1146071Y+1471999D01*
X+1220579Y+1471999D01*
X+1273264Y+1419314D01*
G37*
G36*
X+1673266Y+2754121D02*
X+1673266Y+2744423D01*
X+1620581Y+2691738D01*
X+1546073Y+2691738D01*
X+1493388Y+2744423D01*
X+1493388Y+2818931D01*
X+1497388Y+2822931D01*
X+1497388Y+3009999D01*
X+1673266Y+3009999D01*
X+1673266Y+2754121D01*
G37*
G36*
X+1073266Y+2754121D02*
X+1073266Y+2744423D01*
X+1020581Y+2691738D01*
X+946073Y+2691738D01*
X+893388Y+2744423D01*
X+893388Y+2818931D01*
X+897388Y+2822931D01*
X+897388Y+3009999D01*
X+1073266Y+3009999D01*
X+1073266Y+2754121D01*
G37*
G36*
X+1508185Y+4963815D02*
X+1303815Y+4963815D01*
X+1303815Y+5168185D01*
X+1508185Y+5168185D01*
X+1508185Y+4963815D01*
G37*
G36*
X+495939Y+3966561D02*
X+230061Y+3966561D01*
X+230061Y+3989821D01*
X+61939Y+3989821D01*
X+61939Y+3930061D01*
X-153939Y+3930061D01*
X-153939Y+4135939D01*
X+61939Y+4135939D01*
X+61939Y+4076179D01*
X+230061Y+4076179D01*
X+230061Y+4167439D01*
X+495939Y+4167439D01*
X+495939Y+3966561D01*
G37*
G36*
X+248635Y+4997303D02*
X+248635Y+4949305D01*
X+233875Y+4934545D01*
X+233875Y+4480811D01*
X+141939Y+4388875D01*
X+141939Y+4269061D01*
X-33939Y+4269061D01*
X-33939Y+4444939D01*
X+75875Y+4444939D01*
X+147517Y+4516581D01*
X+147517Y+4934545D01*
X+132757Y+4949305D01*
X+132757Y+4997303D01*
X+166697Y+5031243D01*
X+214695Y+5031243D01*
X+248635Y+4997303D01*
G37*
G36*
X-58061Y+4269061D02*
X-233939Y+4269061D01*
X-233939Y+4444939D01*
X-58061Y+4444939D01*
X-58061Y+4269061D01*
G37*
G36*
X-475259Y+858234D02*
X-475259Y+1001766D01*
X-373766Y+1103259D01*
X-230234Y+1103259D01*
X-128741Y+1001766D01*
X-128741Y+858234D01*
X-230234Y+756741D01*
X-373766Y+756741D01*
X-475259Y+858234D01*
G37*
G36*
X-227259Y+4868234D02*
X-227259Y+5011766D01*
X-125766Y+5113259D01*
X+17766Y+5113259D01*
X+119259Y+5011766D01*
X+119259Y+4868234D01*
X+17766Y+4766741D01*
X-125766Y+4766741D01*
X-227259Y+4868234D01*
G37*
G36*
X-364255Y+4033561D02*
X-455745Y+4033561D01*
X-520439Y+4098255D01*
X-520439Y+4189745D01*
X-455745Y+4254439D01*
X-364255Y+4254439D01*
X-299561Y+4189745D01*
X-299561Y+4098255D01*
X-364255Y+4033561D01*
G37*
G36*
X-364255Y+4287561D02*
X-455745Y+4287561D01*
X-520439Y+4352255D01*
X-520439Y+4443745D01*
X-455745Y+4508439D01*
X-364255Y+4508439D01*
X-299561Y+4443745D01*
X-299561Y+4352255D01*
X-364255Y+4287561D01*
G37*
G36*
X-364255Y+4541561D02*
X-455745Y+4541561D01*
X-520439Y+4606255D01*
X-520439Y+4697745D01*
X-455745Y+4762439D01*
X-364255Y+4762439D01*
X-299561Y+4697745D01*
X-299561Y+4606255D01*
X-364255Y+4541561D01*
G37*
G36*
X+1388079Y+768928D02*
X+1388079Y+789772D01*
X+1402817Y+804510D01*
X+1423661Y+804510D01*
X+1438399Y+789772D01*
X+1438399Y+768928D01*
X+1423661Y+754190D01*
X+1402817Y+754190D01*
X+1388079Y+768928D01*
G37*
G36*
X+1175679Y+768928D02*
X+1175679Y+789772D01*
X+1190417Y+804510D01*
X+1211261Y+804510D01*
X+1225999Y+789772D01*
X+1225999Y+768928D01*
X+1211261Y+754190D01*
X+1190417Y+754190D01*
X+1175679Y+768928D01*
G37*
G36*
X+963279Y+768928D02*
X+963279Y+789772D01*
X+978017Y+804510D01*
X+998861Y+804510D01*
X+1013599Y+789772D01*
X+1013599Y+768928D01*
X+998861Y+754190D01*
X+978017Y+754190D01*
X+963279Y+768928D01*
G37*
G36*
X-98721Y+768928D02*
X-98721Y+789772D01*
X-83983Y+804510D01*
X-63139Y+804510D01*
X-48401Y+789772D01*
X-48401Y+768928D01*
X-63139Y+754190D01*
X-83983Y+754190D01*
X-98721Y+768928D01*
G37*
G36*
X-523521Y+768928D02*
X-523521Y+789772D01*
X-508783Y+804510D01*
X-487939Y+804510D01*
X-473201Y+789772D01*
X-473201Y+768928D01*
X-487939Y+754190D01*
X-508783Y+754190D01*
X-523521Y+768928D01*
G37*
G36*
X-533810Y+981078D02*
X-533810Y+1001922D01*
X-519072Y+1016660D01*
X-498228Y+1016660D01*
X-483490Y+1001922D01*
X-483490Y+981078D01*
X-498228Y+966340D01*
X-519072Y+966340D01*
X-533810Y+981078D01*
G37*
G36*
X-125124Y+1062229D02*
X-125124Y+1083073D01*
X-110386Y+1097811D01*
X-89542Y+1097811D01*
X-74804Y+1083073D01*
X-74804Y+1062229D01*
X-89542Y+1047491D01*
X-110386Y+1047491D01*
X-125124Y+1062229D01*
G37*
G36*
X-533413Y+3513328D02*
X-533413Y+3534172D01*
X-518675Y+3548910D01*
X-497831Y+3548910D01*
X-483093Y+3534172D01*
X-483093Y+3513328D01*
X-497831Y+3498590D01*
X-518675Y+3498590D01*
X-533413Y+3513328D01*
G37*
G36*
X-533413Y+3725728D02*
X-533413Y+3746572D01*
X-518675Y+3761310D01*
X-497831Y+3761310D01*
X-483093Y+3746572D01*
X-483093Y+3725728D01*
X-497831Y+3710990D01*
X-518675Y+3710990D01*
X-533413Y+3725728D01*
G37*
G36*
X+71019Y+5163228D02*
X+71019Y+5184072D01*
X+85757Y+5198810D01*
X+106601Y+5198810D01*
X+121339Y+5184072D01*
X+121339Y+5163228D01*
X+106601Y+5148490D01*
X+85757Y+5148490D01*
X+71019Y+5163228D01*
G37*
G36*
X+1557819Y+5163228D02*
X+1557819Y+5184072D01*
X+1572557Y+5198810D01*
X+1593401Y+5198810D01*
X+1608139Y+5184072D01*
X+1608139Y+5163228D01*
X+1593401Y+5148490D01*
X+1572557Y+5148490D01*
X+1557819Y+5163228D01*
G37*
G36*
X+1628840Y+3679578D02*
X+1628840Y+3700422D01*
X+1643578Y+3715160D01*
X+1664422Y+3715160D01*
X+1679160Y+3700422D01*
X+1679160Y+3679578D01*
X+1664422Y+3664840D01*
X+1643578Y+3664840D01*
X+1628840Y+3679578D01*
G37*
G36*
X+1355255Y+1895299D02*
X+1355255Y+1916143D01*
X+1369993Y+1930881D01*
X+1390837Y+1930881D01*
X+1405575Y+1916143D01*
X+1405575Y+1895299D01*
X+1390837Y+1880561D01*
X+1369993Y+1880561D01*
X+1355255Y+1895299D01*
G37*
G36*
X+1355255Y+2263185D02*
X+1355255Y+2284029D01*
X+1369993Y+2298767D01*
X+1390837Y+2298767D01*
X+1405575Y+2284029D01*
X+1405575Y+2263185D01*
X+1390837Y+2248447D01*
X+1369993Y+2248447D01*
X+1355255Y+2263185D01*
G37*
G36*
X+1461455Y+2447128D02*
X+1461455Y+2467972D01*
X+1476193Y+2482710D01*
X+1497037Y+2482710D01*
X+1511775Y+2467972D01*
X+1511775Y+2447128D01*
X+1497037Y+2432390D01*
X+1476193Y+2432390D01*
X+1461455Y+2447128D01*
G37*
G36*
X+515055Y+4495128D02*
X+515055Y+4515972D01*
X+529793Y+4530710D01*
X+550637Y+4530710D01*
X+565375Y+4515972D01*
X+565375Y+4495128D01*
X+550637Y+4480390D01*
X+529793Y+4480390D01*
X+515055Y+4495128D01*
G37*
G36*
X-66945Y+4187128D02*
X-66945Y+4207972D01*
X-52207Y+4222710D01*
X-31363Y+4222710D01*
X-16625Y+4207972D01*
X-16625Y+4187128D01*
X-31363Y+4172390D01*
X-52207Y+4172390D01*
X-66945Y+4187128D01*
G37*
G36*
X+1093055Y+4449128D02*
X+1093055Y+4469972D01*
X+1107793Y+4484710D01*
X+1128637Y+4484710D01*
X+1143375Y+4469972D01*
X+1143375Y+4449128D01*
X+1128637Y+4434390D01*
X+1107793Y+4434390D01*
X+1093055Y+4449128D01*
G37*
G36*
X-245160Y+3923578D02*
X-245160Y+3944422D01*
X-230422Y+3959160D01*
X-209578Y+3959160D01*
X-194840Y+3944422D01*
X-194840Y+3923578D01*
X-209578Y+3908840D01*
X-230422Y+3908840D01*
X-245160Y+3923578D01*
G37*
G36*
X+1285093Y+1089428D02*
X+1285093Y+1110272D01*
X+1299831Y+1125010D01*
X+1320675Y+1125010D01*
X+1335413Y+1110272D01*
X+1335413Y+1089428D01*
X+1320675Y+1074690D01*
X+1299831Y+1074690D01*
X+1285093Y+1089428D01*
G37*
G36*
X-533413Y+4005728D02*
X-533413Y+4026572D01*
X-518675Y+4041310D01*
X-497831Y+4041310D01*
X-483093Y+4026572D01*
X-483093Y+4005728D01*
X-497831Y+3990990D01*
X-518675Y+3990990D01*
X-533413Y+4005728D01*
G37*
G36*
X-535413Y+4255728D02*
X-535413Y+4276572D01*
X-520675Y+4291310D01*
X-499831Y+4291310D01*
X-485093Y+4276572D01*
X-485093Y+4255728D01*
X-499831Y+4240990D01*
X-520675Y+4240990D01*
X-535413Y+4255728D01*
G37*
G36*
X-537413Y+4519728D02*
X-537413Y+4540572D01*
X-522675Y+4555310D01*
X-501831Y+4555310D01*
X-487093Y+4540572D01*
X-487093Y+4519728D01*
X-501831Y+4504990D01*
X-522675Y+4504990D01*
X-537413Y+4519728D01*
G37*
G36*
X+1626587Y+4855728D02*
X+1626587Y+4876572D01*
X+1641325Y+4891310D01*
X+1662169Y+4891310D01*
X+1676907Y+4876572D01*
X+1676907Y+4855728D01*
X+1662169Y+4840990D01*
X+1641325Y+4840990D01*
X+1626587Y+4855728D01*
G37*
G36*
X+1018587Y+5197728D02*
X+1018587Y+5218572D01*
X+1033325Y+5233310D01*
X+1054169Y+5233310D01*
X+1068907Y+5218572D01*
X+1068907Y+5197728D01*
X+1054169Y+5182990D01*
X+1033325Y+5182990D01*
X+1018587Y+5197728D01*
G37*
G36*
X+1254587Y+5195728D02*
X+1254587Y+5216572D01*
X+1269325Y+5231310D01*
X+1290169Y+5231310D01*
X+1304907Y+5216572D01*
X+1304907Y+5195728D01*
X+1290169Y+5180990D01*
X+1269325Y+5180990D01*
X+1254587Y+5195728D01*
G37*
G36*
X+294587Y+3907728D02*
X+294587Y+3928572D01*
X+309325Y+3943310D01*
X+330169Y+3943310D01*
X+344907Y+3928572D01*
X+344907Y+3907728D01*
X+330169Y+3892990D01*
X+309325Y+3892990D01*
X+294587Y+3907728D01*
G37*
G36*
X+1286840Y+993578D02*
X+1286840Y+1014422D01*
X+1301578Y+1029160D01*
X+1322422Y+1029160D01*
X+1337160Y+1014422D01*
X+1337160Y+993578D01*
X+1322422Y+978840D01*
X+1301578Y+978840D01*
X+1286840Y+993578D01*
G37*
G36*
X+250587Y+4701728D02*
X+250587Y+4722572D01*
X+265325Y+4737310D01*
X+286169Y+4737310D01*
X+300907Y+4722572D01*
X+300907Y+4701728D01*
X+286169Y+4686990D01*
X+265325Y+4686990D01*
X+250587Y+4701728D01*
G37*
G36*
X+668840Y+1579578D02*
X+668840Y+1600422D01*
X+683578Y+1615160D01*
X+704422Y+1615160D01*
X+719160Y+1600422D01*
X+719160Y+1579578D01*
X+704422Y+1564840D01*
X+683578Y+1564840D01*
X+668840Y+1579578D01*
G37*
G36*
X+819255Y+1963185D02*
X+819255Y+1984029D01*
X+833993Y+1998767D01*
X+854837Y+1998767D01*
X+869575Y+1984029D01*
X+869575Y+1963185D01*
X+854837Y+1948447D01*
X+833993Y+1948447D01*
X+819255Y+1963185D01*
G37*
G36*
X+818840Y+2209578D02*
X+818840Y+2230422D01*
X+833578Y+2245160D01*
X+854422Y+2245160D01*
X+869160Y+2230422D01*
X+869160Y+2209578D01*
X+854422Y+2194840D01*
X+833578Y+2194840D01*
X+818840Y+2209578D01*
G37*
G36*
X+813255Y+3243185D02*
X+813255Y+3264029D01*
X+827993Y+3278767D01*
X+848837Y+3278767D01*
X+863575Y+3264029D01*
X+863575Y+3243185D01*
X+848837Y+3228447D01*
X+827993Y+3228447D01*
X+813255Y+3243185D01*
G37*
G36*
X+1371255Y+3457185D02*
X+1371255Y+3478029D01*
X+1385993Y+3492767D01*
X+1406837Y+3492767D01*
X+1421575Y+3478029D01*
X+1421575Y+3457185D01*
X+1406837Y+3442447D01*
X+1385993Y+3442447D01*
X+1371255Y+3457185D01*
G37*
G36*
X+898587Y+4015728D02*
X+898587Y+4036572D01*
X+913325Y+4051310D01*
X+934169Y+4051310D01*
X+948907Y+4036572D01*
X+948907Y+4015728D01*
X+934169Y+4000990D01*
X+913325Y+4000990D01*
X+898587Y+4015728D01*
G37*
G36*
X+1626840Y+4569578D02*
X+1626840Y+4590422D01*
X+1641578Y+4605160D01*
X+1662422Y+4605160D01*
X+1677160Y+4590422D01*
X+1677160Y+4569578D01*
X+1662422Y+4554840D01*
X+1641578Y+4554840D01*
X+1626840Y+4569578D01*
G37*
G36*
X+1626840Y+4195578D02*
X+1626840Y+4216422D01*
X+1641578Y+4231160D01*
X+1662422Y+4231160D01*
X+1677160Y+4216422D01*
X+1677160Y+4195578D01*
X+1662422Y+4180840D01*
X+1641578Y+4180840D01*
X+1626840Y+4195578D01*
G37*
%LPD*%
%TA.AperFunction,Conductor*%
G36*
X+508245Y+4886321D02*
X+525228Y+4869338D01*
X+468599Y+4869338D01*
X+463999Y+4873939D01*
X+416001Y+4873939D01*
X+406179Y+4864117D01*
X+406179Y+4933061D01*
X+461065Y+4933061D01*
X+461285Y+4933281D01*
X+508245Y+4886321D01*
G37*
%TD.AperFunction*%
%TA.AperFunction,Conductor*%
G36*
X+1411323Y+4107245D02*
X+1411323Y+3896939D01*
X+1261061Y+3896939D01*
X+1261061Y+3864639D01*
X+1242317Y+3864639D01*
X+1214317Y+3836639D01*
X+1194139Y+3836639D01*
X+1194139Y+3870929D01*
X+1095088Y+3870929D01*
X+1190720Y+3966561D01*
X+1405939Y+3966561D01*
X+1405939Y+4112629D01*
X+1411323Y+4107245D01*
G37*
%TD.AperFunction*%
%TA.AperFunction,Conductor*%
G36*
X+151429Y+3628361D02*
X+158561Y+3628361D01*
X+158561Y+3618561D01*
X+198888Y+3618561D01*
X+143796Y+3563469D01*
X+116639Y+3563469D01*
X+116639Y+3618561D01*
X+129439Y+3618561D01*
X+129439Y+3650351D01*
X+151429Y+3628361D01*
G37*
%TD.AperFunction*%
%TA.AperFunction,Conductor*%
G36*
X+496446Y+3521461D02*
X+590102Y+3521461D01*
X+596124Y+3515439D01*
X+551061Y+3515439D01*
X+551061Y+3494639D01*
X+499833Y+3494639D01*
X+498833Y+3495639D01*
X+340929Y+3495639D01*
X+340929Y+3559561D01*
X+496446Y+3559561D01*
X+496446Y+3521461D01*
G37*
%TD.AperFunction*%
%TA.AperFunction,Conductor*%
G36*
X+35361Y+3563469D02*
X+31071Y+3563469D01*
X+31071Y+3408531D01*
X+62552Y+3408531D01*
X+62552Y+3248904D01*
X-111182Y+3422639D01*
X-145663Y+3422639D01*
X-127729Y+3440573D01*
X-127729Y+3467061D01*
X-3061Y+3467061D01*
X-3061Y+3564467D01*
X+35361Y+3602889D01*
X+35361Y+3563469D01*
G37*
%TD.AperFunction*%
%TA.AperFunction,Conductor*%
G36*
X+241361Y+3016217D02*
X+241361Y+3009999D01*
X+223966Y+3009999D01*
X+223966Y+3033611D01*
X+241361Y+3016217D01*
G37*
%TD.AperFunction*%
%TA.AperFunction,Conductor*%
G36*
X+142688Y+3053825D02*
X+142688Y+3009999D01*
X+97388Y+3009999D01*
X+97388Y+2975784D01*
X+9111Y+3064061D01*
X+53999Y+3064061D01*
X+87939Y+3098001D01*
X+87939Y+3108574D01*
X+142688Y+3053825D01*
G37*
%TD.AperFunction*%
%TA.AperFunction,Conductor*%
G36*
X+241361Y+1957167D02*
X+488276Y+1710252D01*
X+488276Y+1685786D01*
X+522216Y+1651846D01*
X+524608Y+1651846D01*
X+507967Y+1635205D01*
X+483501Y+1635205D01*
X+449561Y+1601265D01*
X+449561Y+1553267D01*
X+473308Y+1529520D01*
X+201952Y+1529520D01*
X+120639Y+1610833D01*
X+120639Y+2690238D01*
X+241361Y+2690238D01*
X+241361Y+1957167D01*
G37*
%TD.AperFunction*%
%LPC*%
G36*
X+134840Y+1823578D02*
X+134840Y+1844422D01*
X+149578Y+1859160D01*
X+170422Y+1859160D01*
X+185160Y+1844422D01*
X+185160Y+1823578D01*
X+170422Y+1808840D01*
X+149578Y+1808840D01*
X+134840Y+1823578D01*
G37*
G36*
X+132220Y+2376434D02*
X+132220Y+2397278D01*
X+146958Y+2412016D01*
X+167802Y+2412016D01*
X+182540Y+2397278D01*
X+182540Y+2376434D01*
X+167802Y+2361696D01*
X+146958Y+2361696D01*
X+132220Y+2376434D01*
G37*
G36*
X+132220Y+2588834D02*
X+132220Y+2609678D01*
X+146958Y+2624416D01*
X+167802Y+2624416D01*
X+182540Y+2609678D01*
X+182540Y+2588834D01*
X+167802Y+2574096D01*
X+146958Y+2574096D01*
X+132220Y+2588834D01*
G37*
%LPD*%
%TA.AperFunction,Conductor*%
G36*
X+493388Y+1419314D02*
X+493388Y+1344806D01*
X+497388Y+1340805D01*
X+497388Y+1154121D01*
X+539361Y+1154121D01*
X+539361Y+1117469D01*
X+505071Y+1117469D01*
X+505071Y+980639D01*
X+494929Y+980639D01*
X+494929Y+1117469D01*
X+345071Y+1117469D01*
X+345071Y+980639D01*
X+344929Y+980639D01*
X+344929Y+1117469D01*
X+307445Y+1117469D01*
X+270793Y+1154121D01*
X+273266Y+1154121D01*
X+273266Y+1290621D01*
X+274766Y+1290621D01*
X+274766Y+1448242D01*
X+322316Y+1448242D01*
X+293388Y+1419314D01*
X+293388Y+1344806D01*
X+297388Y+1340806D01*
X+297388Y+1154121D01*
X+473266Y+1154121D01*
X+473266Y+1419314D01*
X+444338Y+1448242D01*
X+522316Y+1448242D01*
X+493388Y+1419314D01*
G37*
%TD.AperFunction*%
%TA.AperFunction,Conductor*%
G36*
X+661561Y+980639D02*
X+654929Y+980639D01*
X+654929Y+999361D01*
X+661561Y+999361D01*
X+661561Y+980639D01*
G37*
%TD.AperFunction*%
D10*
X+585327Y+1282060D02*
X+585327Y+1259437D01*
X+583327Y+1261696D01*
X+583327Y+1280060D01*
X+583327Y+1382060D02*
X+583327Y+1280060D01*
X+585327Y+1282060D02*
X+583327Y+1280060D01*
X+580000Y+1276733D01*
X+580000Y+1040000D01*
X+1585326Y+2882060D02*
X+1585327Y+2882060D01*
X+985327Y+2882060D02*
X+983327Y+2880060D01*
X+983327Y+2781677D01*
X+1385327Y+2882060D02*
X+1383327Y+2880060D01*
X+1383327Y+2781677D01*
X+1185327Y+2882060D02*
X+1183325Y+2880058D01*
X+1183325Y+2781677D01*
X+185327Y+1282060D02*
X+185327Y+1182115D01*
X+267421Y+1100021D01*
X+267421Y+1042579D01*
X+270000Y+1040000D01*
X+185327Y+1282060D02*
X+183327Y+1284060D01*
X+183327Y+1382060D01*
X+785327Y+1282060D02*
X+783327Y+1284060D01*
X+783327Y+1382060D01*
X+383327Y+2880060D02*
X+385327Y+2882060D01*
X+183327Y+2880060D02*
X+185327Y+2882060D01*
D11*
X+1580000Y+1055550D02*
X+1580000Y+1264796D01*
X+1586512Y+1271308D01*
X+1585327Y+1282060D01*
D10*
X+1580000Y+1055550D02*
X+1582720Y+1100000D01*
X+1585327Y+1290000D02*
X+1585327Y+1297177D01*
X+1585327Y+1282060D02*
X+1585327Y+1290000D01*
X+1583327Y+1288000D02*
X+1585327Y+1290000D01*
X+1585327Y+1282060D02*
X+1583327Y+1284060D01*
X+1583327Y+1288000D01*
X+1583327Y+1382060D01*
X+420000Y+940000D02*
X+420000Y+1040000D01*
X+1583327Y+2872832D02*
X+1583327Y+2887977D01*
X+1588611Y+2878116D02*
X+1583327Y+2872832D01*
X+1583327Y+2781677D02*
X+1583327Y+2872832D01*
D11*
X+1580000Y+965000D02*
X+1573631Y+962029D01*
X+1580000Y+955660D01*
X+1580000Y+850000D01*
X+1580000Y+960000D02*
X+1580000Y+965000D01*
X+1580000Y+1055550D01*
X+1104302Y+4908415D02*
X+1105611Y+4909724D01*
D10*
X+783327Y+2781677D02*
X+783327Y+2880060D01*
X+785327Y+2882060D01*
X+583327Y+2781677D02*
X+583327Y+2880060D01*
X+585327Y+2882060D01*
X+383327Y+1382060D02*
X+383327Y+1284060D01*
X+385327Y+1282060D01*
X+1385327Y+1282060D02*
X+1385327Y+1384274D01*
X+1383921Y+1385680D01*
X+1383327Y+1382060D01*
X+1185327Y+1282060D02*
X+1185327Y+1380058D01*
X+1183325Y+1382060D01*
X+985327Y+1282060D02*
X+985327Y+1380060D01*
X+983327Y+1382060D01*
X+44000Y+3799000D02*
X+104367Y+3799000D01*
X+163182Y+3740185D01*
X+237815Y+3740185D01*
X+244000Y+3734000D01*
X+44000Y+3734000D02*
X+103262Y+3734000D01*
X+168262Y+3669000D01*
X+244000Y+3669000D01*
X+481503Y+3282000D02*
X+481512Y+3282000D01*
X+637000Y+3282000D01*
X+704000Y+3215000D01*
X+730000Y+1040000D02*
X+588331Y+1040000D01*
X+586933Y+1041398D01*
X+580000Y+1040000D01*
D11*
X+440000Y+4816000D02*
X+656000Y+4816000D01*
X+658000Y+4818000D01*
X+658000Y+4816000D01*
X+892453Y+4581547D01*
X+1141727Y+4581547D01*
X+1273000Y+4450274D01*
X+1273000Y+4321000D01*
D12*
X-46000Y+4033000D02*
X+329000Y+4033000D01*
X+363000Y+4067000D01*
D11*
X+1104302Y+4908415D02*
X+561584Y+4908415D01*
X+406000Y+5063999D01*
X+406000Y+5066000D01*
D12*
X+363000Y+4321000D02*
X+363000Y+5023000D01*
X+406000Y+5066000D01*
D10*
X+383327Y+2880060D02*
X+383327Y+2781677D01*
X+706000Y+3214000D02*
X+706000Y+3215000D01*
X+705000Y+3214000D02*
X+705873Y+3213127D01*
X+705000Y+3214000D01*
X+706000Y+3215000D02*
X+706747Y+3215000D01*
X+704000Y+3215000D01*
X+706000Y+3214000D02*
X+705000Y+3214000D01*
X+704000Y+3215000D01*
D12*
X+704000Y+3192210D01*
X+767127Y+3129083D01*
D10*
X+420000Y+940000D02*
X+170000Y+940000D01*
X+110000Y+1000000D01*
X+110000Y+1040000D01*
X+110000Y+1052000D01*
X-410000Y+3890000D02*
X-319000Y+3799000D01*
X+44000Y+3799000D01*
X-410000Y+3636000D02*
X-312000Y+3734000D01*
X+44000Y+3734000D01*
X+183327Y+2781677D02*
X+183327Y+2880060D01*
X+183327Y+3070658D01*
X-128015Y+3382000D01*
X-410000Y+3382000D01*
D12*
X+190696Y+4973304D02*
X+190696Y+4498696D01*
X+52488Y+4360488D01*
X+52488Y+4358512D01*
X+54000Y+4357000D01*
D10*
X+1733327Y+1782060D02*
X+1580467Y+1782060D01*
X+1579818Y+1781411D01*
X+44000Y+3669000D02*
X+76000Y+3669000D01*
X+76000Y+3516000D01*
X+106000Y+3486000D01*
X+482000Y+3455000D02*
X+297000Y+3455000D01*
X+266000Y+3486000D01*
X+482000Y+3455000D02*
X+482000Y+3376105D01*
X+482053Y+3376052D01*
X+481503Y+3368000D01*
X+609000Y+3425000D02*
X+580000Y+3454000D01*
X+483000Y+3454000D01*
X+482000Y+3455000D01*
X+1580000Y+850000D02*
X+1328000Y+850000D01*
X+1238000Y+940000D01*
X+420000Y+940000D01*
X+44000Y+3669000D02*
X-65000Y+3560000D01*
X-76000Y+3560000D01*
X+183327Y+1382060D02*
X+183327Y+1484788D01*
X+187420Y+1488881D01*
X+785327Y+1282060D02*
X+785327Y+1440060D01*
X+736506Y+1488881D01*
X+187420Y+1488881D01*
X+449000Y+3325000D02*
X+416497Y+3292497D01*
X+416497Y+3284500D01*
X+416488Y+3282000D01*
X+568835Y+3600200D02*
X+237999Y+3600200D01*
X+184000Y+3546201D01*
X+184000Y+3416001D01*
X+147636Y+3379637D01*
X+147636Y+3234800D01*
X+383327Y+2999109D01*
X+383327Y+2880060D01*
X+187420Y+1488881D02*
X+185119Y+1488881D01*
X+80000Y+1594000D01*
X+80000Y+2935700D01*
X-40300Y+3056000D01*
X-186000Y+3056000D01*
X-185668Y+3464572D02*
X-184000Y+3466240D01*
X-184000Y+3560000D01*
X+244000Y+3799000D02*
X+348000Y+3799000D01*
X+30000Y+3122000D02*
X-386000Y+3122000D01*
X-393000Y+3115000D01*
X-408000Y+3130000D01*
X-410000Y+3128000D01*
X+106000Y+3486000D02*
X+103191Y+3483191D01*
X+103191Y+3211859D01*
X+282000Y+3033050D01*
X+282000Y+1974000D01*
X+546215Y+1709785D01*
X+613979Y+3032820D02*
X+618920Y+3028930D01*
X+641638Y+3028930D01*
X+684000Y+2986568D01*
X+684000Y+1753766D01*
X+507500Y+1577266D01*
X+1273000Y+4067000D02*
X+1233687Y+4067000D01*
X+962687Y+3796000D01*
X+886000Y+3796000D01*
X+668115Y+3796000D01*
X+662815Y+3790700D01*
X+1116670Y+3796000D02*
X+1231150Y+3796000D01*
X+1258437Y+3823287D01*
X+1259150Y+3824000D01*
X+1354000Y+3824000D01*
X+1462662Y+3824000D01*
X+1464662Y+3826000D01*
D11*
X+1273000Y+4321000D02*
X+1464662Y+4129338D01*
X+1464662Y+3826000D01*
X+1464662Y+3559445D01*
X+1627645Y+3396462D01*
D10*
X+1018000Y+3441000D02*
X+1018000Y+3537330D01*
X+1019348Y+3538678D01*
X+568835Y+3600200D02*
X+630357Y+3538678D01*
X+1019348Y+3538678D01*
X+1116670Y+3636000D01*
X+1018000Y+3291000D02*
X+1193696Y+3291000D01*
X+1196696Y+3288000D01*
X+1354000Y+3715000D02*
X+1352745Y+3713745D01*
X+1287744Y+3713745D01*
X+1254000Y+3680001D01*
X+1254000Y+3505304D01*
X+1196696Y+3448000D01*
D13*
X+1354000Y+3824000D02*
X+1354000Y+3715000D01*
D10*
X+983327Y+1382060D02*
X+983327Y+2247627D01*
X+1284000Y+2548300D01*
X+1284000Y+3467220D01*
X+1302000Y+3485220D01*
X+1302000Y+3572000D01*
X+1336000Y+3606000D01*
X+1354000Y+3606000D01*
D14*
X+440000Y+4816000D03*
X+1104302Y+4908415D03*
X+1627645Y+3396462D03*
X+767127Y+3129083D03*
X+1579818Y+1781411D03*
X+190696Y+4973304D03*
X+1413239Y+779350D03*
X+1200839Y+779350D03*
X+988439Y+779350D03*
X-73561Y+779350D03*
X-498361Y+779350D03*
X-508650Y+991500D03*
X-99964Y+1072651D03*
X+160000Y+1834000D03*
X+157380Y+2386856D03*
X+157380Y+2599256D03*
X-508253Y+3523750D03*
X-508253Y+3736150D03*
X+96179Y+5173650D03*
X+1582979Y+5173650D03*
X+1654000Y+3690000D03*
X+1380415Y+1905721D03*
X+1380415Y+2273607D03*
X+1486615Y+2457550D03*
X+540215Y+4505550D03*
X-41785Y+4197550D03*
X+1118215Y+4459550D03*
X-220000Y+3934000D03*
X+1310253Y+1099850D03*
X-502000Y+3262000D03*
X-508253Y+4016150D03*
X-510253Y+4266150D03*
X-512253Y+4530150D03*
X+1651747Y+4866150D03*
X+1043747Y+5208150D03*
X+1279747Y+5206150D03*
X+319747Y+3918150D03*
X+1312000Y+1004000D03*
X+1580000Y+850000D03*
X+275747Y+4712150D03*
X-186000Y+3056000D03*
X-185668Y+3464572D03*
X+348000Y+3799000D03*
X+30000Y+3122000D03*
X+546215Y+1709785D03*
X+694000Y+1590000D03*
X+613979Y+3032820D03*
X+507500Y+1577266D03*
X+1276499Y+2455266D03*
X+844415Y+1973607D03*
X+844000Y+2220000D03*
X+838415Y+3253607D03*
X+1396415Y+3467607D03*
X+1348000Y+3198000D03*
X+923747Y+4026150D03*
X+1652000Y+4580000D03*
X+1652000Y+4206000D03*
D13*
X+1731838Y+2669999D02*
X+1605388Y+2669999D01*
X+1605388Y+2494121D01*
X+1731838Y+2494121D01*
X+1731838Y+2469999D01*
X+1605388Y+2469999D01*
X+1605388Y+2294121D01*
X+1731838Y+2294121D01*
X+1731838Y+2269999D01*
X+1605388Y+2269999D01*
X+1605388Y+2094121D01*
X+1731838Y+2094121D01*
X+1731838Y+2069999D01*
X+1605388Y+2069999D01*
X+1605388Y+1894121D01*
X+1731838Y+1894121D01*
X+1731838Y+1869999D01*
X+1605388Y+1869999D01*
X+1605388Y+1837779D01*
X+1603817Y+1839350D01*
X+1555819Y+1839350D01*
X+1521879Y+1805410D01*
X+1521879Y+1757412D01*
X+1555819Y+1723472D01*
X+1603817Y+1723472D01*
X+1605388Y+1725043D01*
X+1605388Y+1694121D01*
X+1731838Y+1694121D01*
X+1731838Y+1669999D01*
X+1605388Y+1669999D01*
X+1605388Y+1494121D01*
X+1731838Y+1494121D01*
X+1731838Y+673150D01*
X-614850Y+673150D01*
X-614850Y+1178851D01*
X+17702Y+1178851D01*
X+51180Y+1212329D01*
X+51180Y+1565348D01*
X+142688Y+1473840D01*
X+142688Y+1473499D01*
X+91888Y+1473499D01*
X+91888Y+1290621D01*
X+97388Y+1290621D01*
X+97388Y+1154121D01*
X+155849Y+1154121D01*
X+195071Y+1114899D01*
X+195071Y+980639D01*
X+186833Y+980639D01*
X+184929Y+982543D01*
X+184929Y+1117469D01*
X+35071Y+1117469D01*
X+35071Y+962531D01*
X+89997Y+962531D01*
X+153167Y+899361D01*
X+1221167Y+899361D01*
X+1311167Y+809361D01*
X+1538701Y+809361D01*
X+1556001Y+792061D01*
X+1603999Y+792061D01*
X+1637939Y+826001D01*
X+1637939Y+873999D01*
X+1633339Y+878599D01*
X+1633339Y+890061D01*
X+1648439Y+890061D01*
X+1648439Y+1027611D01*
X+1655109Y+1027611D01*
X+1655109Y+1154121D01*
X+1673266Y+1154121D01*
X+1673266Y+1419314D01*
X+1620581Y+1471999D01*
X+1546073Y+1471999D01*
X+1493388Y+1419314D01*
X+1493388Y+1344806D01*
X+1497388Y+1340806D01*
X+1497388Y+1154121D01*
X+1510331Y+1154121D01*
X+1510331Y+1039939D01*
X+1482389Y+1039939D01*
X+1482389Y+1172389D01*
X+1473266Y+1172389D01*
X+1473266Y+1419314D01*
X+1420581Y+1471999D01*
X+1346073Y+1471999D01*
X+1293388Y+1419314D01*
X+1293388Y+1344806D01*
X+1297388Y+1340806D01*
X+1297388Y+1154121D01*
X+1337611Y+1154121D01*
X+1337611Y+1027611D01*
X+1377561Y+1027611D01*
X+1377561Y+890639D01*
X+1344833Y+890639D01*
X+1254833Y+980639D01*
X+932439Y+980639D01*
X+932439Y+1114939D01*
X+661561Y+1114939D01*
X+661561Y+1080639D01*
X+654929Y+1080639D01*
X+654929Y+1117469D01*
X+620639Y+1117469D01*
X+620639Y+1154121D01*
X+673266Y+1154121D01*
X+673266Y+1419314D01*
X+644338Y+1448242D01*
X+719673Y+1448242D01*
X+720994Y+1446920D01*
X+693388Y+1419314D01*
X+693388Y+1344806D01*
X+697388Y+1340806D01*
X+697388Y+1154121D01*
X+873266Y+1154121D01*
X+873266Y+1419314D01*
X+820581Y+1471999D01*
X+810860Y+1471999D01*
X+753339Y+1529520D01*
X+541692Y+1529520D01*
X+565439Y+1553267D01*
X+565439Y+1577733D01*
X+724639Y+1736933D01*
X+724639Y+2713172D01*
X+746073Y+2691738D01*
X+820581Y+2691738D01*
X+873266Y+2744423D01*
X+873266Y+3009999D01*
X+718041Y+3009999D01*
X+671918Y+3056122D01*
X+671918Y+3056819D01*
X+637978Y+3090759D01*
X+589980Y+3090759D01*
X+556040Y+3056819D01*
X+556040Y+3009999D01*
X+497388Y+3009999D01*
X+497388Y+2822931D01*
X+493388Y+2818931D01*
X+493388Y+2744423D01*
X+546073Y+2691738D01*
X+620581Y+2691738D01*
X+643361Y+2714518D01*
X+643361Y+1770599D01*
X+604154Y+1731392D01*
X+604154Y+1733784D01*
X+570214Y+1767724D01*
X+545748Y+1767724D01*
X+322639Y+1990833D01*
X+322639Y+2715172D01*
X+346073Y+2691738D01*
X+420581Y+2691738D01*
X+473266Y+2744423D01*
X+473266Y+3009999D01*
X+423966Y+3009999D01*
X+423966Y+3015942D01*
X+188275Y+3251633D01*
X+188275Y+3253430D01*
X+221494Y+3220211D01*
X+302506Y+3220211D01*
X+359789Y+3277494D01*
X+359789Y+3358506D01*
X+309764Y+3408531D01*
X+340929Y+3408531D01*
X+340929Y+3414361D01*
X+373055Y+3414361D01*
X+373055Y+3231061D01*
X+524945Y+3231061D01*
X+524945Y+3241361D01*
X+620167Y+3241361D01*
X+646061Y+3215467D01*
X+646061Y+3124561D01*
X+709188Y+3124561D01*
X+709188Y+3105084D01*
X+743128Y+3071144D01*
X+791126Y+3071144D01*
X+825066Y+3105084D01*
X+825066Y+3153082D01*
X+791126Y+3187022D01*
X+770252Y+3187022D01*
X+761939Y+3195335D01*
X+761939Y+3305439D01*
X+671033Y+3305439D01*
X+653833Y+3322639D01*
X+524945Y+3322639D01*
X+524945Y+3413361D01*
X+551061Y+3413361D01*
X+551061Y+3334561D01*
X+666939Y+3334561D01*
X+666939Y+3498039D01*
X+741061Y+3498039D01*
X+741061Y+3334561D01*
X+856939Y+3334561D01*
X+856939Y+3498039D01*
X+942561Y+3498039D01*
X+942561Y+3215561D01*
X+1093439Y+3215561D01*
X+1093439Y+3250361D01*
X+1119227Y+3250361D01*
X+1119227Y+3213071D01*
X+1243361Y+3213071D01*
X+1243361Y+3009999D01*
X+1097388Y+3009999D01*
X+1097388Y+2822933D01*
X+1093386Y+2818931D01*
X+1093386Y+2744423D01*
X+1146071Y+2691738D01*
X+1220579Y+2691738D01*
X+1243361Y+2714520D01*
X+1243361Y+2565133D01*
X+942688Y+2264460D01*
X+942688Y+1468614D01*
X+893388Y+1419314D01*
X+893388Y+1344806D01*
X+897388Y+1340806D01*
X+897388Y+1154121D01*
X+1073266Y+1154121D01*
X+1073266Y+1419314D01*
X+1023966Y+1468614D01*
X+1023966Y+2230794D01*
X+1251339Y+2458167D01*
X+1251339Y+2444844D01*
X+1266077Y+2430106D01*
X+1286921Y+2430106D01*
X+1301659Y+2444844D01*
X+1301659Y+2465688D01*
X+1286921Y+2480426D01*
X+1273598Y+2480426D01*
X+1324639Y+2531467D01*
X+1324639Y+2713172D01*
X+1346073Y+2691738D01*
X+1420581Y+2691738D01*
X+1473266Y+2744423D01*
X+1473266Y+3009999D01*
X+1324639Y+3009999D01*
X+1324639Y+3185779D01*
X+1337578Y+3172840D01*
X+1358422Y+3172840D01*
X+1373160Y+3187578D01*
X+1373160Y+3208422D01*
X+1358422Y+3223160D01*
X+1337578Y+3223160D01*
X+1324639Y+3210221D01*
X+1324639Y+3450387D01*
X+1342639Y+3468387D01*
X+1342639Y+3533061D01*
X+1415614Y+3533061D01*
X+1532886Y+3415789D01*
X+1364211Y+3415789D01*
X+1364211Y+3220211D01*
X+1559789Y+3220211D01*
X+1559789Y+3388886D01*
X+1569706Y+3378969D01*
X+1569706Y+3372463D01*
X+1603646Y+3338523D01*
X+1651644Y+3338523D01*
X+1685584Y+3372463D01*
X+1685584Y+3420461D01*
X+1651644Y+3454401D01*
X+1645138Y+3454401D01*
X+1518001Y+3581538D01*
X+1518001Y+4151431D01*
X+1405939Y+4263493D01*
X+1405939Y+4421439D01*
X+1326339Y+4421439D01*
X+1326339Y+4472367D01*
X+1163821Y+4634885D01*
X+914547Y+4634885D01*
X+711339Y+4838093D01*
X+711339Y+4853639D01*
X+707869Y+4855076D01*
X+1075703Y+4855076D01*
X+1080303Y+4850476D01*
X+1128301Y+4850476D01*
X+1162241Y+4884416D01*
X+1162241Y+4932414D01*
X+1139094Y+4955561D01*
X+1201745Y+4955561D01*
X+1266439Y+5020255D01*
X+1266439Y+5111745D01*
X+1201745Y+5176439D01*
X+1110255Y+5176439D01*
X+1045561Y+5111745D01*
X+1045561Y+5020255D01*
X+1099462Y+4966354D01*
X+1080303Y+4966354D01*
X+1075703Y+4961754D01*
X+989758Y+4961754D01*
X+991819Y+4963815D01*
X+1008185Y+4963815D01*
X+1008185Y+4980181D01*
X+1038939Y+5010935D01*
X+1038939Y+5121065D01*
X+1008185Y+5151819D01*
X+1008185Y+5168185D01*
X+991819Y+5168185D01*
X+961065Y+5198939D01*
X+850935Y+5198939D01*
X+820181Y+5168185D01*
X+803815Y+5168185D01*
X+803815Y+5151819D01*
X+773061Y+5121065D01*
X+773061Y+5010935D01*
X+803815Y+4980181D01*
X+803815Y+4963815D01*
X+820181Y+4963815D01*
X+822242Y+4961754D01*
X+707938Y+4961754D01*
X+766439Y+5020255D01*
X+766439Y+5111745D01*
X+701745Y+5176439D01*
X+610255Y+5176439D01*
X+545561Y+5111745D01*
X+545561Y+5020255D01*
X+604062Y+4961754D01*
X+583676Y+4961754D01*
X+536717Y+5008713D01*
X+538939Y+5010935D01*
X+538939Y+5121065D01*
X+461065Y+5198939D01*
X+350935Y+5198939D01*
X+273061Y+5121065D01*
X+273061Y+5010935D01*
X+319821Y+4964175D01*
X+319821Y+4421439D01*
X+230061Y+4421439D01*
X+230061Y+4220561D01*
X+495939Y+4220561D01*
X+495939Y+4421439D01*
X+406179Y+4421439D01*
X+406179Y+4767883D01*
X+416001Y+4758061D01*
X+463999Y+4758061D01*
X+468599Y+4762661D01*
X+635906Y+4762661D01*
X+870359Y+4528209D01*
X+1119633Y+4528209D01*
X+1219661Y+4428181D01*
X+1219661Y+4421439D01*
X+1140061Y+4421439D01*
X+1140061Y+4220561D01*
X+1298007Y+4220561D01*
X+1351129Y+4167439D01*
X+1140061Y+4167439D01*
X+1140061Y+4030846D01*
X+963469Y+3854254D01*
X+963469Y+3870929D01*
X+808531Y+3870929D01*
X+808531Y+3836639D01*
X+735204Y+3836639D01*
X+735204Y+3869439D01*
X+590426Y+3869439D01*
X+590426Y+3711961D01*
X+735204Y+3711961D01*
X+735204Y+3755361D01*
X+808531Y+3755361D01*
X+808531Y+3721071D01*
X+963469Y+3721071D01*
X+963469Y+3755361D01*
X+979520Y+3755361D01*
X+1039201Y+3815042D01*
X+1039201Y+3721071D01*
X+1194139Y+3721071D01*
X+1194139Y+3755361D01*
X+1247983Y+3755361D01*
X+1261061Y+3768439D01*
X+1261061Y+3744534D01*
X+1213361Y+3696834D01*
X+1213361Y+3522929D01*
X+1119227Y+3522929D01*
X+1119227Y+3373071D01*
X+1243361Y+3373071D01*
X+1243361Y+3362929D01*
X+1119227Y+3362929D01*
X+1119227Y+3331639D01*
X+1093439Y+3331639D01*
X+1093439Y+3516439D01*
X+1058639Y+3516439D01*
X+1058639Y+3520497D01*
X+1099213Y+3561071D01*
X+1194139Y+3561071D01*
X+1194139Y+3710929D01*
X+1039201Y+3710929D01*
X+1039201Y+3616003D01*
X+1002515Y+3579317D01*
X+963469Y+3579317D01*
X+963469Y+3710929D01*
X+808531Y+3710929D01*
X+808531Y+3579317D01*
X+647190Y+3579317D01*
X+641224Y+3585283D01*
X+641224Y+3678939D01*
X+496446Y+3678939D01*
X+496446Y+3640839D01*
X+329439Y+3640839D01*
X+329439Y+3741061D01*
X+371999Y+3741061D01*
X+402466Y+3771528D01*
X+402466Y+3711961D01*
X+547244Y+3711961D01*
X+547244Y+3869439D01*
X+402466Y+3869439D01*
X+402466Y+3826472D01*
X+371999Y+3856939D01*
X+324001Y+3856939D01*
X+316501Y+3849439D01*
X+158561Y+3849439D01*
X+158561Y+3802278D01*
X+129439Y+3831400D01*
X+129439Y+3849439D01*
X-41439Y+3849439D01*
X-41439Y+3839639D01*
X-302167Y+3839639D01*
X-303172Y+3840644D01*
X-299561Y+3844255D01*
X-299561Y+3935745D01*
X-364255Y+4000439D01*
X-455745Y+4000439D01*
X-520439Y+3935745D01*
X-520439Y+3844255D01*
X-455745Y+3779561D01*
X-364255Y+3779561D01*
X-360644Y+3783172D01*
X-340472Y+3763000D01*
X-360644Y+3742828D01*
X-364255Y+3746439D01*
X-455745Y+3746439D01*
X-520439Y+3681745D01*
X-520439Y+3590255D01*
X-455745Y+3525561D01*
X-364255Y+3525561D01*
X-299561Y+3590255D01*
X-299561Y+3681745D01*
X-303172Y+3685356D01*
X-295167Y+3693361D01*
X-41439Y+3693361D01*
X-41439Y+3652939D01*
X-256939Y+3652939D01*
X-256939Y+3467061D01*
X-243607Y+3467061D01*
X-243607Y+3440573D01*
X-225673Y+3422639D01*
X-299561Y+3422639D01*
X-299561Y+3427745D01*
X-364255Y+3492439D01*
X-455745Y+3492439D01*
X-520439Y+3427745D01*
X-520439Y+3336255D01*
X-455745Y+3271561D01*
X-364255Y+3271561D01*
X-299561Y+3336255D01*
X-299561Y+3341361D01*
X-144848Y+3341361D01*
X+16574Y+3179939D01*
X+6001Y+3179939D01*
X-11299Y+3162639D01*
X-299561Y+3162639D01*
X-299561Y+3238439D01*
X-489979Y+3238439D01*
X-476840Y+3251578D01*
X-476840Y+3272422D01*
X-491578Y+3287160D01*
X-512422Y+3287160D01*
X-527160Y+3272422D01*
X-527160Y+3251578D01*
X-514021Y+3238439D01*
X-520439Y+3238439D01*
X-520439Y+3017561D01*
X-299561Y+3017561D01*
X-299561Y+3081361D01*
X-242577Y+3081361D01*
X-243939Y+3079999D01*
X-243939Y+3032001D01*
X-209999Y+2998061D01*
X-162001Y+2998061D01*
X-144701Y+3015361D01*
X-57133Y+3015361D01*
X-35922Y+2994150D01*
X-614453Y+2994150D01*
X-614453Y+4710721D01*
X+49327Y+5279850D01*
X+1731838Y+5279850D01*
X+1731838Y+2669999D01*
X+1273264Y+1419314D02*
X+1273264Y+1409999D01*
X+1273266Y+1409999D01*
X+1273266Y+1154121D01*
X+1097388Y+1154121D01*
X+1097388Y+1340804D01*
X+1093386Y+1344806D01*
X+1093386Y+1419314D01*
X+1146071Y+1471999D01*
X+1220579Y+1471999D01*
X+1273264Y+1419314D01*
X+1673266Y+2754121D02*
X+1673266Y+2744423D01*
X+1620581Y+2691738D01*
X+1546073Y+2691738D01*
X+1493388Y+2744423D01*
X+1493388Y+2818931D01*
X+1497388Y+2822931D01*
X+1497388Y+3009999D01*
X+1673266Y+3009999D01*
X+1673266Y+2754121D01*
X+1073266Y+2754121D02*
X+1073266Y+2744423D01*
X+1020581Y+2691738D01*
X+946073Y+2691738D01*
X+893388Y+2744423D01*
X+893388Y+2818931D01*
X+897388Y+2822931D01*
X+897388Y+3009999D01*
X+1073266Y+3009999D01*
X+1073266Y+2754121D01*
X+1508185Y+4963815D02*
X+1303815Y+4963815D01*
X+1303815Y+5168185D01*
X+1508185Y+5168185D01*
X+1508185Y+4963815D01*
X+495939Y+3966561D02*
X+230061Y+3966561D01*
X+230061Y+3989821D01*
X+61939Y+3989821D01*
X+61939Y+3930061D01*
X-153939Y+3930061D01*
X-153939Y+4135939D01*
X+61939Y+4135939D01*
X+61939Y+4076179D01*
X+230061Y+4076179D01*
X+230061Y+4167439D01*
X+495939Y+4167439D01*
X+495939Y+3966561D01*
X+248635Y+4997303D02*
X+248635Y+4949305D01*
X+233875Y+4934545D01*
X+233875Y+4480811D01*
X+141939Y+4388875D01*
X+141939Y+4269061D01*
X-33939Y+4269061D01*
X-33939Y+4444939D01*
X+75875Y+4444939D01*
X+147517Y+4516581D01*
X+147517Y+4934545D01*
X+132757Y+4949305D01*
X+132757Y+4997303D01*
X+166697Y+5031243D01*
X+214695Y+5031243D01*
X+248635Y+4997303D01*
X-58061Y+4269061D02*
X-233939Y+4269061D01*
X-233939Y+4444939D01*
X-58061Y+4444939D01*
X-58061Y+4269061D01*
X-475259Y+858234D02*
X-475259Y+1001766D01*
X-373766Y+1103259D01*
X-230234Y+1103259D01*
X-128741Y+1001766D01*
X-128741Y+858234D01*
X-230234Y+756741D01*
X-373766Y+756741D01*
X-475259Y+858234D01*
X-227259Y+4868234D02*
X-227259Y+5011766D01*
X-125766Y+5113259D01*
X+17766Y+5113259D01*
X+119259Y+5011766D01*
X+119259Y+4868234D01*
X+17766Y+4766741D01*
X-125766Y+4766741D01*
X-227259Y+4868234D01*
X-364255Y+4033561D02*
X-455745Y+4033561D01*
X-520439Y+4098255D01*
X-520439Y+4189745D01*
X-455745Y+4254439D01*
X-364255Y+4254439D01*
X-299561Y+4189745D01*
X-299561Y+4098255D01*
X-364255Y+4033561D01*
X-364255Y+4287561D02*
X-455745Y+4287561D01*
X-520439Y+4352255D01*
X-520439Y+4443745D01*
X-455745Y+4508439D01*
X-364255Y+4508439D01*
X-299561Y+4443745D01*
X-299561Y+4352255D01*
X-364255Y+4287561D01*
X-364255Y+4541561D02*
X-455745Y+4541561D01*
X-520439Y+4606255D01*
X-520439Y+4697745D01*
X-455745Y+4762439D01*
X-364255Y+4762439D01*
X-299561Y+4697745D01*
X-299561Y+4606255D01*
X-364255Y+4541561D01*
X+1388079Y+768928D02*
X+1388079Y+789772D01*
X+1402817Y+804510D01*
X+1423661Y+804510D01*
X+1438399Y+789772D01*
X+1438399Y+768928D01*
X+1423661Y+754190D01*
X+1402817Y+754190D01*
X+1388079Y+768928D01*
X+1175679Y+768928D02*
X+1175679Y+789772D01*
X+1190417Y+804510D01*
X+1211261Y+804510D01*
X+1225999Y+789772D01*
X+1225999Y+768928D01*
X+1211261Y+754190D01*
X+1190417Y+754190D01*
X+1175679Y+768928D01*
X+963279Y+768928D02*
X+963279Y+789772D01*
X+978017Y+804510D01*
X+998861Y+804510D01*
X+1013599Y+789772D01*
X+1013599Y+768928D01*
X+998861Y+754190D01*
X+978017Y+754190D01*
X+963279Y+768928D01*
X-98721Y+768928D02*
X-98721Y+789772D01*
X-83983Y+804510D01*
X-63139Y+804510D01*
X-48401Y+789772D01*
X-48401Y+768928D01*
X-63139Y+754190D01*
X-83983Y+754190D01*
X-98721Y+768928D01*
X-523521Y+768928D02*
X-523521Y+789772D01*
X-508783Y+804510D01*
X-487939Y+804510D01*
X-473201Y+789772D01*
X-473201Y+768928D01*
X-487939Y+754190D01*
X-508783Y+754190D01*
X-523521Y+768928D01*
X-533810Y+981078D02*
X-533810Y+1001922D01*
X-519072Y+1016660D01*
X-498228Y+1016660D01*
X-483490Y+1001922D01*
X-483490Y+981078D01*
X-498228Y+966340D01*
X-519072Y+966340D01*
X-533810Y+981078D01*
X-125124Y+1062229D02*
X-125124Y+1083073D01*
X-110386Y+1097811D01*
X-89542Y+1097811D01*
X-74804Y+1083073D01*
X-74804Y+1062229D01*
X-89542Y+1047491D01*
X-110386Y+1047491D01*
X-125124Y+1062229D01*
X-533413Y+3513328D02*
X-533413Y+3534172D01*
X-518675Y+3548910D01*
X-497831Y+3548910D01*
X-483093Y+3534172D01*
X-483093Y+3513328D01*
X-497831Y+3498590D01*
X-518675Y+3498590D01*
X-533413Y+3513328D01*
X-533413Y+3725728D02*
X-533413Y+3746572D01*
X-518675Y+3761310D01*
X-497831Y+3761310D01*
X-483093Y+3746572D01*
X-483093Y+3725728D01*
X-497831Y+3710990D01*
X-518675Y+3710990D01*
X-533413Y+3725728D01*
X+71019Y+5163228D02*
X+71019Y+5184072D01*
X+85757Y+5198810D01*
X+106601Y+5198810D01*
X+121339Y+5184072D01*
X+121339Y+5163228D01*
X+106601Y+5148490D01*
X+85757Y+5148490D01*
X+71019Y+5163228D01*
X+1557819Y+5163228D02*
X+1557819Y+5184072D01*
X+1572557Y+5198810D01*
X+1593401Y+5198810D01*
X+1608139Y+5184072D01*
X+1608139Y+5163228D01*
X+1593401Y+5148490D01*
X+1572557Y+5148490D01*
X+1557819Y+5163228D01*
X+1628840Y+3679578D02*
X+1628840Y+3700422D01*
X+1643578Y+3715160D01*
X+1664422Y+3715160D01*
X+1679160Y+3700422D01*
X+1679160Y+3679578D01*
X+1664422Y+3664840D01*
X+1643578Y+3664840D01*
X+1628840Y+3679578D01*
X+1355255Y+1895299D02*
X+1355255Y+1916143D01*
X+1369993Y+1930881D01*
X+1390837Y+1930881D01*
X+1405575Y+1916143D01*
X+1405575Y+1895299D01*
X+1390837Y+1880561D01*
X+1369993Y+1880561D01*
X+1355255Y+1895299D01*
X+1355255Y+2263185D02*
X+1355255Y+2284029D01*
X+1369993Y+2298767D01*
X+1390837Y+2298767D01*
X+1405575Y+2284029D01*
X+1405575Y+2263185D01*
X+1390837Y+2248447D01*
X+1369993Y+2248447D01*
X+1355255Y+2263185D01*
X+1461455Y+2447128D02*
X+1461455Y+2467972D01*
X+1476193Y+2482710D01*
X+1497037Y+2482710D01*
X+1511775Y+2467972D01*
X+1511775Y+2447128D01*
X+1497037Y+2432390D01*
X+1476193Y+2432390D01*
X+1461455Y+2447128D01*
X+515055Y+4495128D02*
X+515055Y+4515972D01*
X+529793Y+4530710D01*
X+550637Y+4530710D01*
X+565375Y+4515972D01*
X+565375Y+4495128D01*
X+550637Y+4480390D01*
X+529793Y+4480390D01*
X+515055Y+4495128D01*
X-66945Y+4187128D02*
X-66945Y+4207972D01*
X-52207Y+4222710D01*
X-31363Y+4222710D01*
X-16625Y+4207972D01*
X-16625Y+4187128D01*
X-31363Y+4172390D01*
X-52207Y+4172390D01*
X-66945Y+4187128D01*
X+1093055Y+4449128D02*
X+1093055Y+4469972D01*
X+1107793Y+4484710D01*
X+1128637Y+4484710D01*
X+1143375Y+4469972D01*
X+1143375Y+4449128D01*
X+1128637Y+4434390D01*
X+1107793Y+4434390D01*
X+1093055Y+4449128D01*
X-245160Y+3923578D02*
X-245160Y+3944422D01*
X-230422Y+3959160D01*
X-209578Y+3959160D01*
X-194840Y+3944422D01*
X-194840Y+3923578D01*
X-209578Y+3908840D01*
X-230422Y+3908840D01*
X-245160Y+3923578D01*
X+1285093Y+1089428D02*
X+1285093Y+1110272D01*
X+1299831Y+1125010D01*
X+1320675Y+1125010D01*
X+1335413Y+1110272D01*
X+1335413Y+1089428D01*
X+1320675Y+1074690D01*
X+1299831Y+1074690D01*
X+1285093Y+1089428D01*
X-533413Y+4005728D02*
X-533413Y+4026572D01*
X-518675Y+4041310D01*
X-497831Y+4041310D01*
X-483093Y+4026572D01*
X-483093Y+4005728D01*
X-497831Y+3990990D01*
X-518675Y+3990990D01*
X-533413Y+4005728D01*
X-535413Y+4255728D02*
X-535413Y+4276572D01*
X-520675Y+4291310D01*
X-499831Y+4291310D01*
X-485093Y+4276572D01*
X-485093Y+4255728D01*
X-499831Y+4240990D01*
X-520675Y+4240990D01*
X-535413Y+4255728D01*
X-537413Y+4519728D02*
X-537413Y+4540572D01*
X-522675Y+4555310D01*
X-501831Y+4555310D01*
X-487093Y+4540572D01*
X-487093Y+4519728D01*
X-501831Y+4504990D01*
X-522675Y+4504990D01*
X-537413Y+4519728D01*
X+1626587Y+4855728D02*
X+1626587Y+4876572D01*
X+1641325Y+4891310D01*
X+1662169Y+4891310D01*
X+1676907Y+4876572D01*
X+1676907Y+4855728D01*
X+1662169Y+4840990D01*
X+1641325Y+4840990D01*
X+1626587Y+4855728D01*
X+1018587Y+5197728D02*
X+1018587Y+5218572D01*
X+1033325Y+5233310D01*
X+1054169Y+5233310D01*
X+1068907Y+5218572D01*
X+1068907Y+5197728D01*
X+1054169Y+5182990D01*
X+1033325Y+5182990D01*
X+1018587Y+5197728D01*
X+1254587Y+5195728D02*
X+1254587Y+5216572D01*
X+1269325Y+5231310D01*
X+1290169Y+5231310D01*
X+1304907Y+5216572D01*
X+1304907Y+5195728D01*
X+1290169Y+5180990D01*
X+1269325Y+5180990D01*
X+1254587Y+5195728D01*
X+294587Y+3907728D02*
X+294587Y+3928572D01*
X+309325Y+3943310D01*
X+330169Y+3943310D01*
X+344907Y+3928572D01*
X+344907Y+3907728D01*
X+330169Y+3892990D01*
X+309325Y+3892990D01*
X+294587Y+3907728D01*
X+1286840Y+993578D02*
X+1286840Y+1014422D01*
X+1301578Y+1029160D01*
X+1322422Y+1029160D01*
X+1337160Y+1014422D01*
X+1337160Y+993578D01*
X+1322422Y+978840D01*
X+1301578Y+978840D01*
X+1286840Y+993578D01*
X+250587Y+4701728D02*
X+250587Y+4722572D01*
X+265325Y+4737310D01*
X+286169Y+4737310D01*
X+300907Y+4722572D01*
X+300907Y+4701728D01*
X+286169Y+4686990D01*
X+265325Y+4686990D01*
X+250587Y+4701728D01*
X+668840Y+1579578D02*
X+668840Y+1600422D01*
X+683578Y+1615160D01*
X+704422Y+1615160D01*
X+719160Y+1600422D01*
X+719160Y+1579578D01*
X+704422Y+1564840D01*
X+683578Y+1564840D01*
X+668840Y+1579578D01*
X+819255Y+1963185D02*
X+819255Y+1984029D01*
X+833993Y+1998767D01*
X+854837Y+1998767D01*
X+869575Y+1984029D01*
X+869575Y+1963185D01*
X+854837Y+1948447D01*
X+833993Y+1948447D01*
X+819255Y+1963185D01*
X+818840Y+2209578D02*
X+818840Y+2230422D01*
X+833578Y+2245160D01*
X+854422Y+2245160D01*
X+869160Y+2230422D01*
X+869160Y+2209578D01*
X+854422Y+2194840D01*
X+833578Y+2194840D01*
X+818840Y+2209578D01*
X+813255Y+3243185D02*
X+813255Y+3264029D01*
X+827993Y+3278767D01*
X+848837Y+3278767D01*
X+863575Y+3264029D01*
X+863575Y+3243185D01*
X+848837Y+3228447D01*
X+827993Y+3228447D01*
X+813255Y+3243185D01*
X+1371255Y+3457185D02*
X+1371255Y+3478029D01*
X+1385993Y+3492767D01*
X+1406837Y+3492767D01*
X+1421575Y+3478029D01*
X+1421575Y+3457185D01*
X+1406837Y+3442447D01*
X+1385993Y+3442447D01*
X+1371255Y+3457185D01*
X+898587Y+4015728D02*
X+898587Y+4036572D01*
X+913325Y+4051310D01*
X+934169Y+4051310D01*
X+948907Y+4036572D01*
X+948907Y+4015728D01*
X+934169Y+4000990D01*
X+913325Y+4000990D01*
X+898587Y+4015728D01*
X+1626840Y+4569578D02*
X+1626840Y+4590422D01*
X+1641578Y+4605160D01*
X+1662422Y+4605160D01*
X+1677160Y+4590422D01*
X+1677160Y+4569578D01*
X+1662422Y+4554840D01*
X+1641578Y+4554840D01*
X+1626840Y+4569578D01*
X+1626840Y+4195578D02*
X+1626840Y+4216422D01*
X+1641578Y+4231160D01*
X+1662422Y+4231160D01*
X+1677160Y+4216422D01*
X+1677160Y+4195578D01*
X+1662422Y+4180840D01*
X+1641578Y+4180840D01*
X+1626840Y+4195578D01*
X+508245Y+4886321D02*
X+525228Y+4869338D01*
X+468599Y+4869338D01*
X+463999Y+4873939D01*
X+416001Y+4873939D01*
X+406179Y+4864117D01*
X+406179Y+4933061D01*
X+461065Y+4933061D01*
X+461285Y+4933281D01*
X+508245Y+4886321D01*
X+1411323Y+4107245D02*
X+1411323Y+3896939D01*
X+1261061Y+3896939D01*
X+1261061Y+3864639D01*
X+1242317Y+3864639D01*
X+1214317Y+3836639D01*
X+1194139Y+3836639D01*
X+1194139Y+3870929D01*
X+1095088Y+3870929D01*
X+1190720Y+3966561D01*
X+1405939Y+3966561D01*
X+1405939Y+4112629D01*
X+1411323Y+4107245D01*
X+151429Y+3628361D02*
X+158561Y+3628361D01*
X+158561Y+3618561D01*
X+198888Y+3618561D01*
X+143796Y+3563469D01*
X+116639Y+3563469D01*
X+116639Y+3618561D01*
X+129439Y+3618561D01*
X+129439Y+3650351D01*
X+151429Y+3628361D01*
X+496446Y+3521461D02*
X+590102Y+3521461D01*
X+596124Y+3515439D01*
X+551061Y+3515439D01*
X+551061Y+3494639D01*
X+499833Y+3494639D01*
X+498833Y+3495639D01*
X+340929Y+3495639D01*
X+340929Y+3559561D01*
X+496446Y+3559561D01*
X+496446Y+3521461D01*
X+35361Y+3563469D02*
X+31071Y+3563469D01*
X+31071Y+3408531D01*
X+62552Y+3408531D01*
X+62552Y+3248904D01*
X-111182Y+3422639D01*
X-145663Y+3422639D01*
X-127729Y+3440573D01*
X-127729Y+3467061D01*
X-3061Y+3467061D01*
X-3061Y+3564467D01*
X+35361Y+3602889D01*
X+35361Y+3563469D01*
X+241361Y+3016217D02*
X+241361Y+3009999D01*
X+223966Y+3009999D01*
X+223966Y+3033611D01*
X+241361Y+3016217D01*
X+142688Y+3053825D02*
X+142688Y+3009999D01*
X+97388Y+3009999D01*
X+97388Y+2975784D01*
X+9111Y+3064061D01*
X+53999Y+3064061D01*
X+87939Y+3098001D01*
X+87939Y+3108574D01*
X+142688Y+3053825D01*
X+241361Y+1957167D02*
X+488276Y+1710252D01*
X+488276Y+1685786D01*
X+522216Y+1651846D01*
X+524608Y+1651846D01*
X+507967Y+1635205D01*
X+483501Y+1635205D01*
X+449561Y+1601265D01*
X+449561Y+1553267D01*
X+473308Y+1529520D01*
X+201952Y+1529520D01*
X+120639Y+1610833D01*
X+120639Y+2690238D01*
X+241361Y+2690238D01*
X+241361Y+1957167D01*
X+134840Y+1823578D02*
X+134840Y+1844422D01*
X+149578Y+1859160D01*
X+170422Y+1859160D01*
X+185160Y+1844422D01*
X+185160Y+1823578D01*
X+170422Y+1808840D01*
X+149578Y+1808840D01*
X+134840Y+1823578D01*
X+132220Y+2376434D02*
X+132220Y+2397278D01*
X+146958Y+2412016D01*
X+167802Y+2412016D01*
X+182540Y+2397278D01*
X+182540Y+2376434D01*
X+167802Y+2361696D01*
X+146958Y+2361696D01*
X+132220Y+2376434D01*
X+132220Y+2588834D02*
X+132220Y+2609678D01*
X+146958Y+2624416D01*
X+167802Y+2624416D01*
X+182540Y+2609678D01*
X+182540Y+2588834D01*
X+167802Y+2574096D01*
X+146958Y+2574096D01*
X+132220Y+2588834D01*
X+493388Y+1419314D02*
X+493388Y+1344806D01*
X+497388Y+1340805D01*
X+497388Y+1154121D01*
X+539361Y+1154121D01*
X+539361Y+1117469D01*
X+505071Y+1117469D01*
X+505071Y+980639D01*
X+494929Y+980639D01*
X+494929Y+1117469D01*
X+345071Y+1117469D01*
X+345071Y+980639D01*
X+344929Y+980639D01*
X+344929Y+1117469D01*
X+307445Y+1117469D01*
X+270793Y+1154121D01*
X+273266Y+1154121D01*
X+273266Y+1290621D01*
X+274766Y+1290621D01*
X+274766Y+1448242D01*
X+322316Y+1448242D01*
X+293388Y+1419314D01*
X+293388Y+1344806D01*
X+297388Y+1340806D01*
X+297388Y+1154121D01*
X+473266Y+1154121D01*
X+473266Y+1419314D01*
X+444338Y+1448242D01*
X+522316Y+1448242D01*
X+493388Y+1419314D01*
X+661561Y+980639D02*
X+654929Y+980639D01*
X+654929Y+999361D01*
X+661561Y+999361D01*
X+661561Y+980639D01*
D10*
X+1663106Y+2882060D02*
X+1585327Y+2882060D01*
X+1585327Y+2999839D02*
X+1585327Y+2882060D01*
X+1507548Y+2882060D02*
X+1585327Y+2882060D01*
X+474855Y+3722121D02*
X+474855Y+3790700D01*
X+537084Y+3790700D02*
X+474855Y+3790700D01*
X+474855Y+3859279D02*
X+474855Y+3790700D01*
X+818691Y+3636000D02*
X+886000Y+3636000D01*
X+953309Y+3636000D02*
X+886000Y+3636000D01*
X+886000Y+3700769D02*
X+886000Y+3636000D01*
X+1387721Y+965000D02*
X+1446000Y+965000D01*
X+1472229Y+1100000D02*
X+1410000Y+1100000D01*
X+1347771Y+1100000D02*
X+1410000Y+1100000D01*
X+751221Y+3425000D02*
X+799000Y+3425000D01*
X+799000Y+3344721D02*
X+799000Y+3425000D01*
X+846779Y+3425000D02*
X+799000Y+3425000D01*
X+416497Y+3241221D02*
X+416497Y+3282000D01*
X+383215Y+3282000D02*
X+416497Y+3282000D01*
X+1462000Y+3405629D02*
X+1462000Y+3318000D01*
X+1374371Y+3318000D02*
X+1462000Y+3318000D01*
X+1462000Y+3230371D02*
X+1462000Y+3318000D01*
X+1549629Y+3318000D02*
X+1462000Y+3318000D01*
X+1663106Y+2781677D02*
X+1583327Y+2781677D01*
X+1503548Y+2781677D02*
X+1583327Y+2781677D01*
X+1583327Y+2701898D02*
X+1583327Y+2781677D01*
X+864000Y+1104779D02*
X+864000Y+1040000D01*
X+922279Y+1040000D02*
X+864000Y+1040000D01*
X-410000Y+4043721D02*
X-410000Y+4144000D01*
X-410000Y+4244279D02*
X-410000Y+4144000D01*
X-309721Y+4144000D02*
X-410000Y+4144000D01*
X-510279Y+4144000D02*
X-410000Y+4144000D01*
D15*
X+185327Y+1282060D03*
X+385327Y+1282060D03*
X+585327Y+1282060D03*
X+785327Y+1282060D03*
X+985327Y+1282060D03*
X+1185327Y+1282060D03*
X+1385327Y+1282060D03*
X+1585327Y+1282060D03*
D16*
X+1733327Y+1582060D03*
X+1733327Y+1782060D03*
X+1733327Y+1982060D03*
X+1733327Y+2182060D03*
X+1733327Y+2382060D03*
X+1733327Y+2582060D03*
D15*
X+1585327Y+2882060D03*
X+1385327Y+2882060D03*
X+1185327Y+2882060D03*
X+985327Y+2882060D03*
X+785327Y+2882060D03*
X+585327Y+2882060D03*
X+385327Y+2882060D03*
X+185327Y+2882060D03*
D17*
X+906000Y+5066000D03*
D18*
X+406000Y+5066000D03*
D17*
X+1406000Y+5066000D03*
D18*
X+906000Y+5066000D03*
D19*
X+363000Y+4321000D03*
X+363000Y+4067000D03*
X+1273000Y+4067000D03*
X+1273000Y+4321000D03*
D70*
X+568835Y+3600200D03*
X+662815Y+3790700D03*
X+474855Y+3790700D03*
D71*
X+886000Y+3796000D03*
X+886000Y+3636000D03*
D20*
X+420000Y+1040000D03*
X+580000Y+1040000D03*
X+110000Y+1040000D03*
X+270000Y+1040000D03*
D21*
X+1446000Y+965000D03*
X+1580000Y+965000D03*
D22*
X+1410000Y+1100000D03*
X+1582720Y+1100000D03*
D23*
X+799000Y+3425000D03*
X+609000Y+3425000D03*
X+704000Y+3215000D03*
D20*
X+106000Y+3486000D03*
X+266000Y+3486000D03*
D24*
X+481512Y+3368000D03*
D25*
X+481503Y+3368000D03*
D24*
X+416488Y+3368000D03*
D26*
X+416497Y+3368000D03*
D24*
X+416488Y+3282000D03*
D27*
X+416497Y+3282000D03*
D24*
X+481512Y+3282000D03*
D28*
X+481503Y+3282000D03*
D29*
X+449000Y+3325000D03*
D24*
X+449000Y+3325000D03*
D72*
X+262000Y+3318000D03*
D73*
X+1462000Y+3318000D03*
D30*
X+183327Y+1382060D03*
D31*
X+383327Y+1382060D03*
X+583327Y+1382060D03*
X+783327Y+1382060D03*
X+983327Y+1382060D03*
X+1183325Y+1382060D03*
X+1383327Y+1382060D03*
X+1583327Y+1382060D03*
D30*
X+183327Y+2781677D03*
D31*
X+383327Y+2781677D03*
X+583327Y+2781677D03*
X+783327Y+2781677D03*
X+983327Y+2781677D03*
X+1183325Y+2781677D03*
X+1383327Y+2781677D03*
X+1583327Y+2781677D03*
D32*
X+54000Y+4357000D03*
D33*
X-46000Y+4033000D03*
D32*
X-146000Y+4357000D03*
D34*
X+1018000Y+3441000D03*
X+1018000Y+3291000D03*
D71*
X+1196696Y+3448000D03*
X+1196696Y+3288000D03*
D35*
X+656000Y+5066000D03*
X+1156000Y+5066000D03*
D36*
X+44000Y+3799000D03*
X+44000Y+3734000D03*
X+44000Y+3669000D03*
X+244000Y+3669000D03*
X+244000Y+3734000D03*
X+244000Y+3799000D03*
D71*
X+1116670Y+3796000D03*
X+1116670Y+3636000D03*
D21*
X+864000Y+1040000D03*
X+730000Y+1040000D03*
D37*
X-410000Y+3128000D03*
D38*
X-410000Y+3382000D03*
X-410000Y+3636000D03*
X-410000Y+3890000D03*
X-410000Y+4144000D03*
X-410000Y+4398000D03*
X-410000Y+4652000D03*
D39*
X-184000Y+3560000D03*
X-76000Y+3560000D03*
D40*
X+1354000Y+3824000D03*
X+1354000Y+3715000D03*
X+1354000Y+3606000D03*
D41*
X-671603Y+4737000D02*
X-671603Y+2937000D01*
X-5970Y+2937000D01*
X-5970Y+1236000D01*
X-672000Y+1236000D01*
X-672000Y+616000D01*
X+1788988Y+616000D01*
X+1788988Y+5337000D01*
X+28182Y+5337000D01*
X-671603Y+4737000D01*
M02*
